<?xml version="1.0" encoding="UTF-8"?>
<svg id="Layer_1" xmlns="http://www.w3.org/2000/svg" version="1.1" viewBox="0 0 595.3 327.9">
  <!-- Generator: Adobe Illustrator 29.0.0, SVG Export Plug-In . SVG Version: 2.1.0 Build 186)  -->
  <defs>
    <style>
      .st0 {
        fill: #152e54;
      }
    </style>
  </defs>
  <path class="st0" d="M597.5,330V2.4c-17.5-1.6-27.5,22.5-23,37.1-20.6-15.6-47.3,4.8-37.7,29.7-16.1-6-30.2,12.9-16.7,24.6-2.6-1.9-6.9-3.2-6.9-3.2-11.9-3.9-40.5,1.1-40.5,30.5-2.2-16.3-23.3-19-32-8.5,9.7-27.8-9.3-65.3-48.3-57.3,11.9-56.5-76.5-65.2-86.3-25.5-32.6-46.9-126.8-5.1-95.1,57.9-37.1-3-57.5,45.2-35.5,69.5-9.8-1.5-20.4,6-16.3,16.4-5.2-16.6-29.2-14.4-34-3.1,5.4-29.1-18.8-41.7-34-37.6-8.8,1.8-19.6,7.8-22.3,19.3-1.4-8.6-12.8-18.1-23.4-9.2,3.9-5.4,2-18.8-8.8-17,14.6-13.1-.5-36.8-17.1-29.2,18.6-30.2-9.1-47.8-21.6-42.8v275.9h599.5Z"/>
</svg>