<?xml version="1.0" encoding="UTF-8"?>
<svg id="Layer_1" xmlns="http://www.w3.org/2000/svg" version="1.1" viewBox="0 0 51.4 52.2">
  <!-- Generator: Adobe Illustrator 29.0.0, SVG Export Plug-In . SVG Version: 2.1.0 Build 186)  -->
  <defs>
    <style>
      .st0 {
        fill: #34bcaa;
      }
    </style>
  </defs>
  <path class="st0" d="M35.6,10.1C32.2,4.8,26.3,1.2,19.6,1.2,9,1.2.5,9.9.5,20.6s4.5,14.5,11,17.5c3.1,7.5,10.4,12.8,18.9,12.8s20.5-9.3,20.5-20.8-6.5-17.7-15.3-20.1ZM30.4,48.2c-6.4,0-12-3.5-15.1-8.7,1.4.3,2.8.5,4.3.5,10.6,0,19.1-8.7,19.1-19.4s-.5-4.8-1.3-6.9c6.3,2.8,10.7,9.1,10.7,16.5s-7.9,18-17.7,18Z"/>
</svg>