<?xml version="1.0" encoding="UTF-8"?>
<svg id="Layer_1" xmlns="http://www.w3.org/2000/svg" version="1.1" viewBox="0 0 1190.5 109.9">
  <!-- Generator: Adobe Illustrator 29.0.0, SVG Export Plug-In . SVG Version: 2.1.0 Build 186)  -->
  <defs>
    <style>
      .st0 {
        fill: #b5e656;
      }

      .st1 {
        fill: #97ca2d;
      }
    </style>
  </defs>
  <path class="st1" d="M1190.5,51.9c-.8,1.3-5.9,7.7-6.7,9.2,1.7-4.3,5.4-17.5,3.1-27.5-2.9,10.8-5.8,18.1-13.1,25,2.7-5.9,3-17.1.2-30.8-2.8,9.4-7.3,25.8-18.5,35.9,4.5-5.8,3.4-13.7,1.7-24.5-3,9.5-13,20.3-19.6,24.5-3.3-8.3,1.6-19,5-23.1-8.2,0-18,9.2-24.1,22.4-2.8-7.9-2.6-19.1,2.7-30.9-7.6,2.8-15.6,14.3-18.4,28.7-1.1-7.2-1.9-21,3.5-34.1-8.2,3.6-15.8,18.9-20.9,36.3-1.1-6.5-1.7-23.1,2.8-39-6.7,2.9-17.4,17.3-20.2,40.4-4.5-7.9-5-26-1.7-39,0,0-15.7,10.1-19.6,35.4,0,0-4.8-8.2-1.7-15.2,0,0-8.1,2.2-9.1,13.1-2.8-5.5-6-16.8,5.8-34.8-9.5,1.2-19.6,11.4-26.9,32.5-.6-10.1,1.7-21.6,11.2-37.5-12.3,5.8-19.3,17.8-28,36.8,4.5-10.1,5-27.4-6.2-49.8,1.1,10.8,0,40.4-14,52,1.5-3.5,2.8-9.9,2.6-18.6,0,0-2.5,8-13.2,16.7,2.8-3.8,13.3-19.7,8.8-29.1-8.4,19.1-17.4,15-23.4,29.8-3.4-7.9,1.5-16.1,1.5-16.1-8.3.2-12.3,6.4-16.3,15.2,2.8-10.1,1.5-22.2.4-31.6-6.2,18.5-14.4,27.3-25.6,35.2,2.8-5.1,3.9-18,3.9-31-2.8,8.7-10.1,20.9-19.6,28.9-2.2-12.3.5-22.3,2.2-29.6,0,0-11.5,13.5-15.1,30.3-2.2-9.4-3.7-18.4,0-33.2-8.5,7.1-12.9,21.2-15.1,31.8-3.4-7.2-1.7-18,.6-28.9-4.5,4.3-11.8,14.4-15.7,29.6-1.1-17.3-6.2-27.4-14-40.4.3,14.3-.9,28.4-9.9,39.9-.8-13.1-4.4-16.7-4.4-16.7,0,0-1.8,14.1-7.1,21.5-3.9-9.4-.9-23,2.8-33.2-4.9,2.8-11.3,8.6-18.5,27.9,2.2-7,2.3-19.7-3.4-29-.6,13-1,21.3-6.2,33.6,0-8.7-1.7-18-10.1-33.2,1.7,10.8.6,22.4-1.1,33.9,0-10.1-.6-16.6-5.6-28.2-1.5,10.3-3,13.1-7.3,20.8,2.9-6.9,3.2-19.3,2.2-31.6-4.8,13.2-9.2,17.7-18,33.4,3.3-7.1,3-19.9-.5-29.8-5.6,17.3-13.5,30.3-25.8,33.2,5.8-8,8.4-19.6,9.5-28.9-7.7,11.6-21.7,24.2-34.8,31,0,0-1.2-8.9,6.2-18-3.4,0-17.4,1.4-26.9,19.5,1.7-4.3,2.8-15.2-1.1-22.4-3.4,8.7-5.6,14.4-12.9,23.1,3.4-4.3,2.8-15.2,0-28.9-2.8,9.4-7.3,18.8-18.5,28.9,4.5-5.8,3.4-13.7,1.7-24.5-4.5,9.4-11.8,18-19.6,24.5-1.1-11.5,2.8-18,5-23.1-8.2,0-18,9.2-24.1,22.4-2.8-7.9-2.6-19.1,2.7-30.9-7.6,2.8-15.6,14.3-18.4,28.7-1.1-7.2-1.9-21,3.5-34.1-8.2,3.6-15.8,18.9-20.9,36.3-1.1-6.5-1.7-23.1,2.8-39-6.7,2.9-17.4,17.3-20.2,40.4-4.5-7.9-5-26-1.7-39,0,0-15.7,10.1-19.6,35.4,0,0-4.8-8.2-1.7-15.2,0,0-5.7,0-9.1,13.1-.6-6.5-1-20.3,4-30.4-4.5,0-11.8,7.9-16.3,20.2v6.1c-1-15.5,4.8-24.8,8-30.6-9.5,1.2-19.6,11.4-26.9,32.5-.6-10.1,1.7-21.6,11.2-37.5-12.3,5.8-19.3,17.8-28,36.8,4.5-10.1,5-27.4-6.2-49.8,1.1,10.8,0,40.4-14,52,1.5-3.5,2.8-9.9,2.6-18.6,0,0-2.5,8-13.2,16.7,2.8-3.8,13.3-19.7,8.8-29.1-8.4,19.1-17.4,15-23.4,29.8-3.4-7.9,1.5-16.1,1.5-16.1-8.3.2-12.3,6.4-16.3,15.2,2.8-10.1,1.5-22.2.4-31.6-6.2,18.5-14.4,27.3-25.6,35.2,2.8-5.1,3.9-18,3.9-31-2.8,8.7-10.1,20.9-19.6,28.9-2.2-12.3.5-22.3,2.2-29.6,0,0-11.5,13.5-15.1,30.3-2.2-9.4-3.7-18.4,0-33.2-8.5,7.1-12.9,21.2-15.1,31.8-3.4-7.2-1.7-18,.6-28.9-4.5,4.3-11.8,14.4-15.7,29.6-1.1-17.3-6.2-27.4-14-40.4.3,14.3-.9,28.4-9.9,39.9-.8-13.1-4.4-16.7-4.4-16.7,0,0-1.8,14.1-7.1,21.5-3.9-9.4-.9-23,2.8-33.2-4.9,2.8-11.3,8.6-18.5,27.9,2.2-7,2.3-19.7-3.4-29-.6,13-1,21.3-6.2,33.6,0-8.7-1.7-18-10.1-33.2,1.7,10.8.6,22.4-1.1,33.9,0-10.1-.6-16.6-5.6-28.2-1.5,10.3-3,13.1-7.3,20.8,2.9-6.9,3.2-19.3,2.2-31.6-4.8,13.2-9.2,17.7-18,33.4,3.3-7.1,3-19.9-.5-29.8-5.6,17.3-13.5,30.3-25.8,33.2,5.8-8,8.4-19.6,9.5-28.9-7.7,11.6-21.7,24.2-34.8,31,0,0-1.3-8.9,6.2-18-3.4,0-17.4,1.4-26.9,19.5,1.7-4.3,2.8-15.2-1.1-22.4-3.4,8.7-5.6,14.4-12.9,23.1,3.4-4.3,2.8-15.2,0-28.9-2.8,9.4-7.3,18.8-18.5,28.9,4.5-5.8,3.4-13.7,1.7-24.5-4.5,9.4-11.8,18-19.6,24.5-1.1-11.5,2.8-18,5-23.1-8.2,0-18,9.2-24.1,22.4-2.8-7.9-2.6-19.1,2.7-30.9-7.6,2.8-15.6,14.3-18.4,28.7-1.1-7.2-1.9-21,3.5-34.1-8.2,3.6-15.8,18.9-20.9,36.3-1.1-6.5-1.7-23.1,2.8-39-6.7,2.9-17.4,17.3-20.2,40.4-4.5-7.9-5-26-1.7-39,0,0-15.7,10.1-19.6,35.4,0,0-4.8-8.2-1.7-15.2,0,0-5.7,0-9.1,13.1-.6-6.5-1-20.3,4-30.4-4.5,0-11.8,7.9-16.3,20.2v124.3h1190.5V51.9Z"/>
  <g>
    <g>
      <path class="st0" d="M588,72.9s-.2,12.8,11,14.8c1.2-8.8-5.3-14.9-11-14.8Z"/>
      <path class="st0" d="M612.2,75.1s-12.2,3.8-10.7,15c8.8-1.6,12.5-9.6,10.7-15Z"/>
    </g>
    <g>
      <path class="st0" d="M383.3,133.2s-2,12.6,8.7,16.2c2.5-8.5-3.1-15.5-8.7-16.2Z"/>
      <path class="st0" d="M407,138.9s-12.6,1.9-12.8,13.3c8.9-.3,13.8-7.7,12.8-13.3Z"/>
    </g>
    <g>
      <path class="st0" d="M471.8,98.5s3.8,12.2,15,10.6c-1.6-8.8-9.7-12.5-15-10.6Z"/>
      <path class="st0" d="M495.5,93s-10.4,7.4-5.5,17.6c7.8-4.2,8.9-13.1,5.5-17.6Z"/>
    </g>
    <g>
      <path class="st0" d="M274.3,79.2s.9,12.7,12.2,13.8c.4-8.9-6.6-14.3-12.2-13.8Z"/>
      <path class="st0" d="M298.6,79.3s-11.8,4.8-9.4,15.9c8.6-2.3,11.6-10.7,9.4-15.9Z"/>
    </g>
    <g>
      <path class="st0" d="M188.9,121.3s2.3,12.6,13.6,12.4c-.5-8.9-8.1-13.5-13.6-12.4Z"/>
      <path class="st0" d="M213.1,118.7s-11.2,6.1-7.6,16.8c8.3-3.2,10.4-11.9,7.6-16.8Z"/>
    </g>
    <g>
      <path class="st0" d="M755.5,108.6s3.3,12.3,14.6,11.2c-1.2-8.8-9.2-12.8-14.6-11.2Z"/>
      <path class="st0" d="M779.5,104.1s-10.7,7-6.2,17.4c8-3.9,9.4-12.7,6.2-17.4Z"/>
    </g>
    <g>
      <path class="st0" d="M841.7,71.1s.8,12.8,12,14c.6-8.9-6.4-14.4-12-14Z"/>
      <path class="st0" d="M866.1,71.5s-11.9,4.6-9.6,15.7c8.6-2.2,11.8-10.5,9.6-15.7Z"/>
    </g>
    <g>
      <path class="st0" d="M23.5,68.8s-1.2,12.7,9.7,15.7c1.9-8.7-4.1-15.3-9.7-15.7Z"/>
      <path class="st0" d="M47.5,73s-12.5,2.7-11.9,14c8.9-.8,13.3-8.6,11.9-14Z"/>
    </g>
    <g>
      <path class="st0" d="M1013.9,77.2s1.8,12.6,13.1,12.9c-.2-8.9-7.6-13.9-13.1-12.9Z"/>
      <path class="st0" d="M1038.2,75.6s-11.5,5.6-8.2,16.5c8.4-2.9,10.9-11.5,8.2-16.5Z"/>
    </g>
    <g>
      <path class="st0" d="M650.7,136.9s.8,12.8,12,14c.6-8.9-6.4-14.4-12-14Z"/>
      <path class="st0" d="M675,137.3s-11.9,4.6-9.6,15.7c8.6-2.2,11.8-10.5,9.6-15.7Z"/>
    </g>
    <g>
      <path class="st0" d="M1142.1,88.6s.9,12.7,12.1,13.9c.5-8.9-6.5-14.4-12.1-13.9Z"/>
      <path class="st0" d="M1166.4,88.8s-11.9,4.7-9.5,15.8c8.6-2.3,11.7-10.6,9.5-15.8Z"/>
    </g>
    <g>
      <path class="st0" d="M80.6,136s-1.2,12.7,9.7,15.7c1.9-8.7-4.1-15.3-9.7-15.7Z"/>
      <path class="st0" d="M104.6,140.2s-12.5,2.7-11.9,14c8.9-.8,13.3-8.6,11.9-14Z"/>
    </g>
    <g>
      <path class="st0" d="M1040.2,144s1.8,12.6,13.1,12.9c-.2-8.9-7.6-13.9-13.1-12.9Z"/>
      <path class="st0" d="M1064.5,142.4s-11.5,5.6-8.2,16.5c8.4-2.9,10.9-11.5,8.2-16.5Z"/>
    </g>
    <g>
      <path class="st0" d="M922,137.1s0,12.8,11.1,14.7c1.1-8.8-5.5-14.8-11.1-14.7Z"/>
      <path class="st0" d="M946.2,139s-12.2,3.9-10.5,15.1c8.7-1.6,12.4-9.8,10.5-15.1Z"/>
    </g>
  </g>
</svg>