<?xml version="1.0" encoding="UTF-8"?>
<svg id="Layer_1" xmlns="http://www.w3.org/2000/svg" version="1.1" viewBox="0 0 104.9 104.9">
  <!-- Generator: Adobe Illustrator 29.0.0, SVG Export Plug-In . SVG Version: 2.1.0 Build 186)  -->
  <defs>
    <style>
      .st0 {
        fill: #ba755e;
      }

      .st1 {
        fill: #e48867;
      }

      .st2 {
        fill: #f2f2f3;
      }

      .st3 {
        fill: #f3be18;
      }

      .st4 {
        fill: #a1d7e9;
      }

      .st5 {
        fill: #1a233a;
      }

      .st6 {
        fill: #49488a;
      }

      .st7 {
        fill: #f4af77;
      }

      .st8 {
        fill: #c8484a;
      }

      .st9 {
        fill: #e8a22c;
      }

      .st10 {
        fill: #48b7a7;
      }

      .st11 {
        fill: #dcdbe6;
      }

      .st12 {
        fill: #ee7e23;
      }
    </style>
  </defs>
  <g>
    <circle class="st2" cx="52.4" cy="52.4" r="38.4"/>
    <g>
      <path class="st5" d="M63.2,51.5l-10.2,1.7-10.2-1.7v49.4c0,0,2.3,0,2.3,0l7.8-44.2.7,44.2h2.3s4.1-18.6,4.3-20.3c.2-1.7-.6-6.9-.6-6.9l3.6-22.2Z"/>
      <path class="st5" d="M45,15.6s.7-6.7,1.6-10.1c.9-3.4,4.5-4.6,6.7-4.4,2.2.2,6.4,1.1,6.4,6.3,0,5.2.7,8.5.7,8.5l-15.5-.3Z"/>
      <path class="st11" d="M45.9,28.1l1.3,8.4c-3.4,4.9-5.1,12.3-6,18h24.3c-2.1-12.8-6.9-17.9-6.9-17.9l1.9-8.5c1.7-1.6,1.8-4.3,1.8-5.4v-4.4s-7.7-3.8-9.5-3.8-8.9,3.4-8.9,3.4v4.6c-.6,3.4,2,5.6,2,5.6"/>
      <path class="st10" d="M47,50.5l.7-34.4s-3.9,1-5,2.1c-1.2,1.1-3.8,21.1-4.1,27.1,0,.7.8,2.4.8,2.4,0,.8,0,1.7-.2,2.7h7.9Z"/>
      <path class="st5" d="M60.3,28s0,0,0,0c0,0-.1-.2,0-.3,1.2-1.9,1.4-4.4.5-6.4,0,0,0-.1,0-.2.1-.3.3-.6.4-.8.1-.3.3-.6.4-.9,0,0,.2-.1.2,0,0,0,.1.2,0,.2-.1.3-.3.6-.4.9-.1.3-.2.5-.4.8.9,2.2.7,4.7-.6,6.7,0,0,0,0-.2,0"/>
      <path class="st7" d="M51.2,12v4.3s2.2,3.6,4.1,0l-.2-4.3h-4Z"/>
      <path class="st7" d="M52.1,1.9c-3.7.5-4.3,4.7-3.4,8.1.7,2.5,2.2,5,4.5,5s3.8-3.3,4.2-5.3c.7-3.2.6-8.6-5.3-7.8"/>
      <path class="st7" d="M49.1,9s-.1-1.4-1.3-.9c-1.1.5.2,3.6,1.5,3.3,1.3-.4-.2-2.3-.2-2.3"/>
      <path class="st7" d="M56.7,8.9s0-1.4,1.2-1c1.2.4,0,3.6-1.3,3.4-1.3-.3,0-2.3,0-2.3"/>
      <path class="st5" d="M57,2.9c-.3-.1-.6-.2-.9-.2,0-.2-.2-.4-.4-.5-1.3-.7-4.3-.6-5.7,0-1.3.6-2.9,3-3.2,4.5-.4,1.5,0,3.1.4,4.6.1.4.2.9.6,1.1.3.2.7.1,1.1,0,2.1-.5,4-1.6,5.4-3.2.2-.2.4-.5.6-.7,0,0,0,0,0,0,.5,1.4,1.4,2.7,2.6,3.6.1.1.3.2.4.2.3,0,.4-.3.5-.5.4-.9.8-1.8.9-2.8,0-1-1.4-5.6-2.3-6.1"/>
      <path class="st0" d="M53.2,15.1c-.6,0-1.1-.1-1.6-.4,0,0-.1-.2,0-.2,0,0,.2-.1.3,0,.9.5,2.1.5,3,0,0,0,.2,0,.3,0,0,0,0,.2,0,.3-.5.4-1.2.5-1.8.5"/>
      <path class="st10" d="M65.7,50.5c0-.8,0-1.5-.1-2.2,0,0,.5-2.2.5-3-.3-6-2.7-25.9-3.9-27-1.2-1.1-4.6-2.1-4.6-2.1l.4,34.4h7.7Z"/>
      <path class="st10" d="M62.2,18.3c1.2.8,2,3.1,2.5,5,.5,1.9,5.6,7,5,8.8-.6,1.8-.8,2,0,4.2.7,2.3-3.6,2.8-5.3,2.3-1.7-.5-5.5-2.8-5.5-2.8l-.2-3.6,1.9.3,1.7-14.2Z"/>
      <path class="st10" d="M42.6,18.3c-1.2.8-1.9,3.1-2.5,5-.5,1.9-5.6,7-5,8.8.6,1.8.8,2,0,4.2-.7,2.3,3.6,2.8,5.3,2.3,1.7-.5,5.5-2.8,5.5-2.8l.2-3.6-1.9.3-1.8-14.2Z"/>
      <polygon class="st11" points="45.1 100.9 44.4 103.8 40.3 103.8 42.3 102.4 42.8 100.9 45.1 100.9"/>
      <polygon class="st11" points="53.6 100.9 53.6 103.8 57.7 103.8 55.7 102.4 56 100.9 53.6 100.9"/>
      <polygon class="st5" points="42.1 32.8 42.8 22.9 60.3 22.9 60.9 34.5 42.1 34.5 42.1 32.8"/>
      <path class="st6" d="M51.7,30c-.5,0-1-.3-1.3-.7-.2-.3-.3-.7-.2-1.1,0-.5.4-1,.9-1.2.2,0,.4-.1.6-.1.6,0,1.2.3,1.4.8.4.7,0,1.6-.6,2-.2.1-.5.2-.7.2M51.7,27.3c-.2,0-.3,0-.4,0-.4.2-.6.5-.7.9,0,.3,0,.6.2.8.2.3.6.5,1,.5s.4,0,.6-.1c.5-.3.7-1,.5-1.5-.2-.4-.6-.6-1.1-.6"/>
      <path class="st7" d="M64,32.1s-.9-1.8-1.5-1.8l-.7,1.7s-3-.6-3.1-.4c0,.2-.3,1-.3,1h1.3c0,0-.3.6-.2.8.1.2.4.4.4.4,0,0,0,.5.1,1,.1.5,0,.9.3,1.3.3.4,3.1-.1,3.5-.2,0,0,0,0,.1,0,1.5-.7,1.6-2.9,0-3.7"/>
      <path class="st7" d="M39.9,32.9s.9-1.8,1.5-1.8l.7,1.7s3-.6,3.1-.4c0,.2.3,1,.3,1h-1.3c0,0,.3.6.2.8-.1.2-.4.4-.4.4,0,0,0,.5-.1,1-.1.5,0,.9-.3,1.3-.3.4-3.1-.1-3.5-.2,0,0,0,0-.1,0-1.5-.7-1.6-2.9,0-3.7"/>
      <path class="st5" d="M39.4,32.9c0,0-.1,0-.2,0-.3-.6-.7-1.1-1.2-1.6,0,0,0-.2,0-.3,0,0,.2,0,.3,0,.5.5.9,1.1,1.2,1.7,0,0,0,.2,0,.2,0,0,0,0,0,0"/>
      <path class="st5" d="M63.9,31.5s0,0,0,0c0,0-.1-.1-.1-.2.2-.6.6-1.1,1.1-1.4,0,0,.2,0,.3,0,0,0,0,.2,0,.3-.4.3-.8.7-.9,1.2,0,0,0,.1-.2.1"/>
      <path class="st5" d="M45.5,48.6h0c-1.8,0-3.7-.2-5.5-.3,0,0-.2,0-.2-.2,0-.1,0-.2.2-.2,1.8.1,3.7.3,5.5.3,0,0,.2,0,.2.2,0,0,0,.2-.2.2"/>
      <path class="st5" d="M59,48.5c0,0-.2,0-.2-.2,0-.1,0-.2.2-.2,1.8-.1,3.6-.1,5.5,0,.1,0,.2,0,.2.2,0,0,0,.2-.2.2-1.8,0-3.6,0-5.4,0,0,0,0,0,0,0"/>
      <path class="st5" d="M39.6,38.7c0,0-.2,0-.2-.2,0-.1,0-.2.2-.2.6,0,1.1-.3,1.4-.8,0,0,.2-.1.3,0,0,0,.1.2,0,.3-.4.6-1,1-1.7,1h0Z"/>
      <path class="st5" d="M65.1,38.3s0,0,0,0c-.8-.4-1.5-1.1-2-1.8,0,0,0-.2,0-.3,0,0,.2,0,.3,0,.5.7,1.1,1.3,1.9,1.7,0,0,.1.2,0,.2,0,0,0,0-.2,0"/>
      <path class="st5" d="M65.7,35.6s0,0,0,0c0,0-.1-.1-.1-.2.3-.9.2-2.1-.5-2.8,0,0,0-.2,0-.3,0,0,.2,0,.3,0,.7.9.9,2.1.5,3.2,0,0,0,.1-.2.1"/>
      <path class="st5" d="M38.5,36.1c0,0-.1,0-.2,0-.5-.9-.5-2.1.2-2.9,0,0,.2,0,.3,0,0,0,0,.2,0,.3-.5.7-.6,1.8-.1,2.5,0,0,0,.2,0,.2,0,0,0,0,0,0"/>
      <path class="st5" d="M54.8,48.4c0,0-.1,0-.1,0-2.7-3.2-4.4-7.1-5-11.2,0,0,0-.2.2-.2,0,0,.2,0,.2.2.6,4,2.3,7.9,5,11,0,0,0,.2,0,.3,0,0,0,0-.1,0"/>
    </g>
  </g>
  <g>
    <circle class="st2" cx="464.1" cy="41" r="38.4"/>
    <g>
      <path class="st11" d="M448.4,88.9l-.8,2.1s-3.9,1.8-3.9,2.2h6.9l.5-4.3h-2.6Z"/>
      <path class="st11" d="M479.3,81.2l1.6,1.4s-.2,4.5,0,4.8l3.5-5.7-3.5-2.5-1.7,2Z"/>
      <path class="st10" d="M461.3,56.4s1.2,10.7,1.4,11.2c.2.4,16.8,14.7,16.8,14.7l2.7-2.7-12.7-17.5,1.8-21.4-10.1,15.8Z"/>
      <path class="st10" d="M471.8,29.2c-4.5.5-9.1.8-13.1,2.9l1.1,3.5s-6.2,18.1-6.5,19.6c-.2,1.5-5.9,34.7-5.9,34.7h4l9.9-32.7s13.1-15.5,12.5-21.7c-.3-2.8-1.1-4.8-2-6.3"/>
      <path class="st1" d="M459.9,8.4s2.1-5.7.9-5.9c-.8-.2-2.1,1.5-3,1-.3-.1-.9-1.9-1.3-3.1-.1-.3-.8.5-.9.2-.1-.4.5-2.6.3-2.9-3.9-5.5,5.8-10.9,8.5-6.4,1.7,2.8,1.9,6.4,0,9.5l2.9,3.8-7.4,3.9Z"/>
      <path class="st4" d="M458.4,11.1c0-1.8.3-3.5.3-5.3,1.6-2.8,5.6-4.7,8.8-5.3.6,1.2,1.1,2.3,1.7,3.4-2.7,2.8-7.4,5.4-10.8,7.3"/>
      <path class="st5" d="M469.2,3.9s-1.3-1-4.7.5c-.8.4-7.4,7.5-7.6,8.9-.1,1.4,1.9,6.5,1.9,6.5l-2.1,18.4,19.4-5.4-4.3-10.4s-.4-9.1-2.6-18.5"/>
      <path class="st5" d="M462,56.6s0,0-.1,0c0,0,0-.2,0-.3,0,0,6.3-8.3,8.6-12,0,0,.2-.1.3,0,0,0,.1.2,0,.3-2.3,3.7-8.5,12-8.6,12,0,0,0,0-.1,0"/>
      <path class="st1" d="M478.4,36.6c.4-.5-.1-1.8-.5-2.5.5-.6.8-2.2,1.2-2.8,1.6,4.3,2.9,6.2,3,6.7.2,1.2.3,1.9-.7,1.8s-.6,1.3-1.4,1.1c-.8-.2-.6,1.4-1.4.8-.7-.6-.3-2.4-.3-2.4,0,0-1.5-.9,0-2.7"/>
      <path class="st1" d="M450,31.7c.5.3,1.7-.5,2.4-1.1.7.4,2.3.3,3,.6-3.8,2.5-5.4,4.2-5.9,4.4-1.2.5-1.8.7-1.9-.3-.1-1-1.4-.3-1.4-1.2,0-.8-1.5-.3-1.1-1.2.4-.8,2.3-.9,2.3-.9,0,0,.5-1.7,2.6-.5"/>
      <path class="st5" d="M469.2,3.9c2.3,1.7,12,30.4,12,30.4l-4,1.7s-2.3-5.7-3.9-7.2c-1.5-1.6-2-2.2-1.8-4.7.2-2.5-6.7-10-7.5-13-.8-3,3.5-8.4,5.1-7.2"/>
      <path class="st4" d="M474.6,30c0,0-.1,0-.2-.1-.5-1.4-1.1-2.6-1.9-3.7-.3-.4-.6-.8-1-1.1-.5-.4-.9-.9-1.3-1.5-.4-.8-.6-1.7-.8-2.6-.2-.8-.3-1.6-.7-2.3-.5-1.1-1.5-2-2.4-2.9-1-1-2.1-2.1-2.6-3.5-.3-1-.4-2.2,0-3.4.3-1.2.8-2.3,1.3-3.1,0,0,.2-.1.2,0,0,0,.1.2,0,.2-.4.8-1,1.9-1.2,3-.3,1.1-.2,2.2,0,3.2.5,1.3,1.5,2.3,2.5,3.3.9.9,1.9,1.8,2.4,3,.4.7.5,1.6.7,2.3.2.9.4,1.7.8,2.5.3.6.8,1,1.2,1.4.4.4.8.7,1.1,1.2.7,1.1,1.4,2.4,1.9,3.8,0,0,0,.2-.1.2,0,0,0,0,0,0"/>
      <polygon class="st5" points="451.1 30.6 454 33.3 460.6 27.9 458.8 19.8 451.1 30.6"/>
      <path class="st4" d="M458.1,28.8s0,0,0,0c0,0-.2-.1-.1-.2.5-2.5.9-5.1,1.2-7.6,0,0,.1-.2.2-.2.1,0,.2.1.2.2-.3,2.6-.7,5.1-1.2,7.7,0,0,0,.1-.2.1"/>
      <path class="st3" d="M472.2,2.1c-.7-.2-1.3-.6-1.9-1.1-1.2-1.1-1.3-3.4-1.6-4.9-.4-1.7-.7-3.5-1.8-5-2.4-3.1-7.3-2.4-10.6-1.6-1.2.3-2.3.8-3.1,1.7-1.6,1.9-.4,5,2.3,4.5.7-.2,1.7-1,2.5-.8.4,0,.7.4.8.8,0,.4,0,.8.2,1.1.4.3,1,0,1.4.2.3.1.5.4.5.8,0,.3,0,.6-.2.9.2,0,.5,0,.7,0-.3,0,1.2-3.8,1.8-1.3.1.5,0,1.1-.2,1.6-.1.5-.3,1.1-.2,1.6.2.8.9,1.3,1.7,1.6.7.3,1.5.4,2.2.9,1.6,1,2,3.1,2.5,4.9.5,1.8,1.2,3.6,2.2,5.2.4.7,1,1.6,1.9,1.6.6,0,1.1-.4,1.5-.7,1.5-1.2,3.1-2.4,4.1-4.1.9-1.7,1.1-4-.2-5.4-1.6-1.8-4.4-1.6-6.6-2.3"/>
    </g>
  </g>
  <g>
    <circle class="st2" cx="556.2" cy="36.5" r="38.4"/>
    <g>
      <path class="st5" d="M554.1,51.8l2.3-11.1h1.5s1,11.1,1,11.1h9c.1-4.9.2-14.3,0-18.9l-21.3-.6c-.2,3.7-.3,13.8-.7,19.4h8.3Z"/>
      <path class="st5" d="M545.8,51.8c-.8,15.7-1.6,35.7-1.6,35.7l-3.2,2.3h5l8.2-38.1-4.6-.7-3.7.7Z"/>
      <path class="st5" d="M567.8,51.8l-6.6-3.6-2.3,3.6,3.9,38.1h4.9l-2.8-2.1s2.5-17.7,2.9-35.9"/>
      <path class="st6" d="M557.2,39.4c0,0-.2,0-.2-.1l-1.2-4.6c0,0,0-.2.1-.2,0,0,.2,0,.2.1l1.2,4.6c0,0,0,.2-.1.2,0,0,0,0,0,0"/>
      <path class="st11" d="M544.3,6.5c-1.4,1.7-4.2,9.2-4.2,10.4s-1.4,13.5.9,13.7c2.3.2,4-3,4-3l-.7-21.2Z"/>
      <path class="st12" d="M568.2,7.6l-1.5,26.4-20.2-1.6-2.7,1.7c-1.1-6.5-1.9-14.1-.8-20.8.3-2.1,1.4-7.2,1.8-9.3.2-1.1,9.5-6.1,11.2-6,1.7.1,2.5-.1,5.1.5,3,.7,8.1,3.6,9.2,4.9,1.1,1.3,2.8,19,2.4,20.7-.9,4.1-3.2,11.4-3.2,11.4l-2.8-1.4"/>
      <path class="st8" d="M550.4,26.3c0,0-.1,0-.2,0,0,0,0-.2,0-.2,3.5-1.9,6.6-4.5,9-7.7,0,0,.2,0,.3,0,0,0,0,.2,0,.3-2.5,3.2-5.6,5.9-9.1,7.8,0,0,0,0,0,0"/>
      <path class="st8" d="M556.5,28.7s0,0-.1,0c0,0,0-.2,0-.3,2.4-3,4-5.6,5.1-8.9,0,0,.1-.1.2-.1,0,0,.1.1.1.2-1.1,3.4-2.8,6-5.2,9,0,0,0,0-.1,0"/>
      <path class="st8" d="M547.1,30.9s0,0,0,0c0,0-.2,0-.2-.2.2-3.3.5-6.4.8-9.4.2-2.3.4-4.6.6-7,.2-2.9.3-8.5-1.1-10.8,0,0,0-.2,0-.2,0,0,.2,0,.2,0,1.4,2.4,1.4,8,1.1,11-.2,2.4-.4,4.8-.6,7-.3,3-.6,6.1-.8,9.4,0,0,0,.2-.2.2"/>
      <path class="st7" d="M554.5-5.9V-1.6s3.4,3.6,6.6,0l-.3-4.3h-6.3Z"/>
      <path class="st7" d="M562.9-8.9c-.1,0-.2,0-.3,0,.5-3.1.3-7-4.8-6.8-3,0-3.9,2.9-4.1,5.8-.2,0-.4-.1-.7,0-1,.3-.3,3,.8,3.4.4,2.7,1.8,4.4,3.8,4.5,1.9.1,3.3-1.3,4.2-3.5,1.1-.3,2.2-2.8,1.2-3.2"/>
      <path class="st0" d="M557.7-2c0,0-.2,0-.3,0-1.1,0-2-.6-2.7-1.4,0,0,0-.2,0-.3,0,0,.2,0,.3,0,.6.8,1.5,1.2,2.4,1.3,1,0,1.9-.3,2.7-1.2,0,0,.2,0,.3,0,0,0,0,.2,0,.3-.8.9-1.7,1.3-2.7,1.3"/>
      <path class="st7" d="M543.8,34.2s2.8,5.4,3.7,2.9c1-2.5-1-4.7-1-4.7l-2.7,1.7Z"/>
      <path class="st5" d="M553.6-10l.6,1h.7v-1.8s.9-.9,1-1.9l5.2.4s-.2,1.3.2,1.8v2.1h.6l.6-.6s1.3-4.6.7-5.7c-.5-1.1-1.6-.7-1.6-.7,0,0-1.7-2-4.1-1.3-2.4.7-4.3,2.1-4.7,3.1-.4,1,.6,3.6.6,3.6"/>
      <path class="st7" d="M566.7,34s-2.7,3-1.4,4.9c1.3,1.9,4.2-3.5,4.2-3.5,0,0-2.4-1.4-2.8-1.4"/>
      <path class="st8" d="M566.8,33.7c0,0-.2,0-.2-.1,0,0,0-.2.1-.2,0,0,.4-.2.5-.9,0-.2-.2-.6-.4-1-.5-1.1-1.3-2.7.3-4.2,1.2-1.2.9-2.6.6-3.9-.2-.8-.3-1.4-.1-1.9.3-.7.4-6.7.4-11.2,0-3.6,0-5.8.1-6.2,0,0,.1-.2.2-.1,0,0,.2.1.1.2,0,.4-.1,3.2-.1,6.2,0,6,0,10.7-.4,11.3-.2.4,0,1,.1,1.7.3,1.3.7,3-.7,4.3-1.3,1.3-.7,2.6-.2,3.7.2.5.4.9.4,1.3-.1,1-.8,1.2-.8,1.2,0,0,0,0,0,0"/>
      <path class="st6" d="M548.6,38.9s0,0-.1,0c0,0,0-.2,0-.3.5-.7.8-1.6.7-2.5-.1-.9-.6-1.7-1.3-2.2,0,0,0-.2,0-.3,0,0,.2,0,.3,0,.8.6,1.3,1.5,1.4,2.5.1,1-.2,2-.8,2.7,0,0,0,0-.1,0"/>
      <path class="st6" d="M564.1,41.6c0,0-.2,0-.2-.1,0,0,0-.2.1-.2.9-.2,1.8-.7,2.5-1.4,0,0,.2,0,.3,0,0,0,0,.2,0,.3-.7.8-1.6,1.3-2.7,1.5,0,0,0,0,0,0"/>
      <path class="st11" d="M548,1.5c.9,1.7.7,9,.7,9v2.9s3.9-7.5,2.8-13.8l-3.5,1.9Z"/>
    </g>
  </g>
  <g>
    <circle class="st2" cx="366" cy="37" r="38.4"/>
    <g>
      <path class="st7" d="M361.5,40.7c-1.6,3.8-2.4,14.7-2.2,15.9.2,1.1,13,28.2,13,28.2l2.1-1.3-7.1-24,2.4-18.7h-8.2Z"/>
      <path class="st7" d="M369.6,36.3c-.5.6-4.1,23.9-4.7,25.8-.6,1.9.4,15.6-1.8,24.2h3.2s5.1-15.6,4.1-21.8l6.1-20.8-7-7.4Z"/>
      <polygon class="st7" points="357.7 37.6 362.5 26.8 366.4 30.9 358.4 40.3 357.7 37.6"/>
      <path class="st11" d="M362.5,26.8l.8-2s-1-2.6-.8-3.4c.2-.7,2.9-2.2,2.9-2.2l1.6,4.9-2.5,4.9-2-2.2Z"/>
      <path class="st5" d="M361,41.5l15.5,2.1s1.3-4.1,2.5-6.4c1.9-3.6-.1-11.9-.1-11.9l-13.2-1.9s-1.7,5.2-4.6,18.1"/>
      <path class="st3" d="M359.9-12s2.5-7,8.7-5c5.7,1.9,4,7.5,4,7.5l-12.7-2.5Z"/>
      <path class="st3" d="M356-13.3c1.2-2.7,21.6.6,21.7,4.4,0,3.8-23.1-1-21.7-4.4"/>
      <path class="st5" d="M359.5-9.7c0,.9.2,1.9.5,2.8.3,1,.6,1.7.3,2.8-.2.7-.7,1.4-.8,2.1-.1.7,0,1.4.5,1.9,0-.7.6-1.3,1.2-1.5.7-.2,1.4-.1,2.1,0,.7,0,1.4.2,2.1,0,1.4-.3,2.4-2,2-3.4-.3-.9-1-1.6-1.7-2.3-.9-.8-1.8-1.6-2.9-2.2s-2.2-.6-3.4-.2"/>
      <path class="st7" d="M372.7-8.6c-4.2-.8-8.5-1.7-12.7-2.5.2.7,1.1,1.5,2.1,2.9.3.4,0,2.5.1,2.9.1.4.6-.9.7-.6.5,1.3.6,1.9,1.1,2.5.7.9,2.5.1,3.4.3,1.3.3.7,6.2.7,6.2l5.3-6.2-2-2.5c.8-1.3,1.2-1.7,1.4-3"/>
      <path class="st5" d="M372.7-9.5l-12.7-2.5s-.6,1.1-.4,2.3l6.3.4c-.4.9-.3,2.1.3,2.8.3.4.8.7,1,1.2.4.8-.1,1.7-.5,2.4-.4.8-.9,2.3-.4,3,.2-.5.9-1.3,1.4-1.2.5,0,1.1.2,1.6.2.7-.1,1.2-.6,1.7-1.2.4-.6.8-1.2,1.4-1.5.6-.4,1.5-.4,1.9.1.5-1.8-.5-4.5-1.6-6"/>
      <path class="st11" d="M378.9,25.3s2.2-10,2.3-10.6c.5-2.1-.3-7.8-.4-9.2-.1-1.4-3.5-6.5-4.4-6.8-.9-.3-3.1-1.9-3.1-1.9l-5.2,4.5s-1.6,2.4-3.6,5c-2,2.6-4,4.9-.7,8.4l1.7,9.2,13.4,1.4Z"/>
      <path class="st7" d="M367.1,13.9l-.6,4.9s-8.4-4.2-9-4.4c-2.2-1-4.1-2.2-4.5-2.5-.4-.3-1.4-3.4-1.5-3.7,0-.3,2.3-.3,2.3-.3l-.5-2.6s.9-.1,1.1,0c.1.2,1.3,2.6,1.7,3.1.5.5.7,2.8.7,2.8l10.4,2.7Z"/>
      <polygon class="st5" points="353.8 7.8 353.2 5.3 352.3 .9 350.7 1.4 352.4 7.9 353.8 7.8"/>
      <path class="st5" d="M369.1,14.5l-1.3-.3c0,0-.2-.1-.1-.2,0,0,.1-.2.2-.1l1,.2c0-.4.3-.8.7-1,.4-.2.8-.2,1.4,0,.3,0,1.2.2,1.7.3-.2-2.2-.2-6.5.1-8.6.1-.9.3-1.8.7-2.7.4-.9,1.1-1.6,1.9-2,0,0,.2,0,.2,0s0,.2,0,.2c-.7.3-1.3.9-1.8,1.8-.4.8-.5,1.7-.7,2.6-.3,2.2-.3,6.6,0,8.8v.2s-.2,0-.2,0c-.4,0-1.6-.2-2-.3-.5-.1-.8-.1-1.1,0-.3.1-.6.5-.4.8,0,0,0,0,0,0h-.3c0,.2,0,.2,0,.2,0,0,.1,0,.1,0h0Z"/>
      <path class="st5" d="M373,21.6c-1.7,0-3.4-.3-5-.9h0s0,0,0,0c-.1-.2-.4-.6-.4-1l-.8-.3c0,0-.1-.1-.1-.2,0,0,.1-.1.2-.1l1,.3h0c0,.5.2.8.4,1,2.6,1,5.6,1.1,8.1.4,0,0,.2,0,.2.1,0,0,0,.2-.1.2-1.1.3-2.3.5-3.4.5"/>
      <path class="st0" d="M364.6,68.4c-.1,0-.2,0-.2-.2,0-3.3.1-10.5.3-12.1.2-2,2.4-12.7,2.4-13.1,0-.1.1-.2.2-.1,0,0,.2.1.1.2,0,.1-2.2,11.2-2.4,13.1-.2,1.5-.4,8.7-.3,12,0,.1,0,.2-.2.2h0Z"/>
      <path class="st0" d="M369,76.9s0,0,0,0c0,0-.2-.1-.1-.2.2-.9.4-1.9.6-3,.2-1,.4-2.1.6-3,0-.1.1-.2.2-.1,0,0,.2.1.1.2-.2.9-.4,1.9-.6,3-.2,1-.4,2.1-.6,3,0,0,0,.2-.2.2"/>
      <polygon class="st11" points="372.3 84.8 372.9 86.7 371.9 90.1 370.7 91.3 372.9 91.3 374.8 88.7 375.4 89.6 376.3 88.9 374.3 83.4 372.3 84.8"/>
      <polygon class="st11" points="366.3 86.3 365.6 91.3 364.2 91.3 364.2 89.7 362 91.3 358.8 91.3 361.8 89.4 363.1 86.3 366.3 86.3"/>
      <path class="st9" d="M372.3-11.9s0,0,0,0c-3.5-.9-7-1.6-10.6-2.1-.1,0-.2-.1-.2-.2,0-.1.1-.2.2-.2,3.6.5,7.1,1.2,10.6,2.1,0,0,.2.1.1.2,0,0,0,.1-.2.1"/>
      <path class="st7" d="M358.3,40.7s.7-1.9.5-2.5c-.1-.5-1.2-.6-1.2-.6,0,0-1.4.2-1.8,0-.4-.2-1.7-.1-1.7.1s.9.6.9.6l-3.1,4.1c-.5.6,0,.6.3.7.2,0,1.7-1.3,1.7-1.3,0,0,.3.7.5.7s.6,0,.6,0c0,0,.4.7.6.7.2,0,.6-1,.6-1,0,0,.5.2.6.1.1,0,1.3-1.6,1.3-1.6"/>
      <path class="st5" d="M365.5,23.8c0,0-.2,0-.2-.1l-.7-3.6c0,0,0-.2.1-.2,0,0,.2,0,.2.1l.7,3.6c0,0,0,.2-.1.2,0,0,0,0,0,0"/>
    </g>
  </g>
</svg>