<?xml version="1.0" encoding="UTF-8"?>
<svg id="Layer_1" xmlns="http://www.w3.org/2000/svg" version="1.1" viewBox="0 0 104.9 104.9">
  <!-- Generator: Adobe Illustrator 29.0.0, SVG Export Plug-In . SVG Version: 2.1.0 Build 186)  -->
  <defs>
    <style>
      .st0 {
        fill: #dcdbe6;
      }

      .st1 {
        fill: #ba755e;
      }

      .st2 {
        fill: #1a233a;
      }

      .st3 {
        fill: #49488a;
      }

      .st4 {
        fill: #f4af77;
      }

      .st5 {
        fill: #48b7a7;
      }

      .st6 {
        fill: #f58122;
      }
    </style>
  </defs>
  <circle class="st6" cx="52.4" cy="52.4" r="38.4"/>
  <g>
    <path class="st2" d="M63.2,51.5l-10.2,1.7-10.2-1.7v49.4h2.3l7.8-44.2.7,44.2h2.3s4.1-18.6,4.3-20.3-.6-6.9-.6-6.9c0,0,3.6-22.2,3.6-22.2Z"/>
    <path class="st2" d="M45,15.6s.7-6.7,1.6-10.1c.9-3.4,4.5-4.6,6.7-4.4,2.2.2,6.4,1.1,6.4,6.3s.7,8.5.7,8.5l-15.5-.3h0Z"/>
    <path class="st0" d="M45.9,28.1l1.3,8.4c-3.4,4.9-5.1,12.3-6,18h24.3c-2.1-12.8-6.9-17.9-6.9-17.9l1.9-8.5c1.7-1.6,1.8-4.3,1.8-5.4v-4.4s-7.7-3.8-9.5-3.8-8.9,3.4-8.9,3.4v4.6c-.6,3.4,2,5.6,2,5.6"/>
    <path class="st5" d="M47,50.5l.7-34.4s-3.9,1-5,2.1c-1.2,1.1-3.8,21.1-4.1,27.1,0,.7.8,2.4.8,2.4,0,.8,0,1.7-.2,2.7h7.9-.1Z"/>
    <path class="st2" d="M60.3,28h0s0-.2,0-.3c1.2-1.9,1.4-4.4.5-6.4v-.2c0-.3.3-.6.4-.8,0-.3.3-.6.4-.9,0,0,.2-.1.2,0,0,0,0,.2,0,.2,0,.3-.3.6-.4.9,0,.3-.2.5-.4.8.9,2.2.7,4.7-.6,6.7h-.2"/>
    <path class="st4" d="M51.2,12v4.3s2.2,3.6,4.1,0l-.2-4.3h-4,.1Z"/>
    <path class="st4" d="M52.1,1.9c-3.7.5-4.3,4.7-3.4,8.1.7,2.5,2.2,5,4.5,5s3.8-3.3,4.2-5.3c.7-3.2.6-8.6-5.3-7.8"/>
    <path class="st4" d="M49.1,9s0-1.4-1.3-.9c-1.1.5.2,3.6,1.5,3.3,1.3-.4-.2-2.3-.2-2.3"/>
    <path class="st4" d="M56.7,8.9s0-1.4,1.2-1c1.2.4,0,3.6-1.3,3.4-1.3-.3,0-2.3,0-2.3"/>
    <path class="st2" d="M57,2.9c-.3,0-.6-.2-.9-.2,0-.2-.2-.4-.4-.5-1.3-.7-4.3-.6-5.7,0-1.3.6-2.9,3-3.2,4.5-.4,1.5,0,3.1.4,4.6,0,.4.2.9.6,1.1.3.2.7.1,1.1,0,2.1-.5,4-1.6,5.4-3.2.2-.2.4-.5.6-.7h0c.5,1.4,1.4,2.7,2.6,3.6,0,.1.3.2.4.2.3,0,.4-.3.5-.5.4-.9.8-1.8.9-2.8,0-1-1.4-5.6-2.3-6.1"/>
    <path class="st1" d="M53.2,15.1c-.6,0-1.1-.1-1.6-.4,0,0,0-.2,0-.2,0,0,.2-.1.3,0,.9.5,2.1.5,3,0h.3v.3c-.5.4-1.2.5-1.8.5"/>
    <path class="st5" d="M65.7,50.5c0-.8,0-1.5,0-2.2,0,0,.5-2.2.5-3-.3-6-2.7-25.9-3.9-27s-4.6-2.1-4.6-2.1l.4,34.4h7.7Z"/>
    <path class="st5" d="M62.2,18.3c1.2.8,2,3.1,2.5,5s5.6,7,5,8.8-.8,2,0,4.2c.7,2.3-3.6,2.8-5.3,2.3-1.7-.5-5.5-2.8-5.5-2.8l-.2-3.6,1.9.3,1.7-14.2h0Z"/>
    <path class="st5" d="M42.6,18.3c-1.2.8-1.9,3.1-2.5,5-.5,1.9-5.6,7-5,8.8s.8,2,0,4.2c-.7,2.3,3.6,2.8,5.3,2.3s5.5-2.8,5.5-2.8l.2-3.6-1.9.3-1.8-14.2h.2Z"/>
    <polygon class="st0" points="45.1 100.9 44.4 103.8 40.3 103.8 42.3 102.4 42.8 100.9 45.1 100.9"/>
    <polygon class="st0" points="53.6 100.9 53.6 103.8 57.7 103.8 55.7 102.4 56 100.9 53.6 100.9"/>
    <polygon class="st2" points="42.1 32.8 42.8 22.9 60.3 22.9 60.9 34.5 42.1 34.5 42.1 32.8"/>
    <path class="st3" d="M51.7,30c-.5,0-1-.3-1.3-.7-.2-.3-.3-.7-.2-1.1,0-.5.4-1,.9-1.2.2,0,.4-.1.6-.1.6,0,1.2.3,1.4.8.4.7,0,1.6-.6,2-.2.1-.5.2-.7.2M51.7,27.3h-.4c-.4.2-.6.5-.7.9,0,.3,0,.6.2.8.2.3.6.5,1,.5s.4,0,.6-.1c.5-.3.7-1,.5-1.5-.2-.4-.6-.6-1.1-.6"/>
    <path class="st4" d="M64,32.1s-.9-1.8-1.5-1.8l-.7,1.7s-3-.6-3.1-.4c0,.2-.3,1-.3,1h1.3s-.3.6-.2.8.4.4.4.4c0,0,0,.5,0,1s0,.9.3,1.3c.3.4,3.1,0,3.5-.2h0c1.5-.7,1.6-2.9,0-3.7"/>
    <path class="st4" d="M39.9,32.9s.9-1.8,1.5-1.8l.7,1.7s3-.6,3.1-.4c0,.2.3,1,.3,1h-1.3s.3.6.2.8-.4.4-.4.4c0,0,0,.5,0,1s0,.9-.3,1.3c-.3.4-3.1,0-3.5-.2h0c-1.5-.7-1.6-2.9,0-3.7"/>
    <path class="st2" d="M39.4,32.9h-.2c-.3-.6-.7-1.1-1.2-1.6v-.3h.3c.5.5.9,1.1,1.2,1.7v.2h0"/>
    <path class="st2" d="M63.9,31.5h0s0-.1,0-.2c.2-.6.6-1.1,1.1-1.4h.3v.3c-.4.3-.8.7-.9,1.2,0,0,0,.1-.2.1"/>
    <path class="st2" d="M45.5,48.6h0c-1.8,0-3.7-.2-5.5-.3,0,0-.2,0-.2-.2s0-.2.2-.2c1.8,0,3.7.3,5.5.3,0,0,.2,0,.2.2,0,0,0,.2-.2.2"/>
    <path class="st2" d="M59,48.5s-.2,0-.2-.2,0-.2.2-.2c1.8,0,3.6,0,5.5,0,0,0,.2,0,.2.2,0,0,0,.2-.2.2h-5.4"/>
    <path class="st2" d="M39.6,38.7s-.2,0-.2-.2,0-.2.2-.2c.6,0,1.1-.3,1.4-.8,0,0,.2,0,.3,0,0,0,0,.2,0,.3-.4.6-1,1-1.7,1h0Z"/>
    <path class="st2" d="M65.1,38.3h0c-.8-.4-1.5-1.1-2-1.8v-.3h.3c.5.7,1.1,1.3,1.9,1.7,0,0,0,.2,0,.2h-.2"/>
    <path class="st2" d="M65.7,35.6h0s0,0,0-.2c.3-.9.2-2.1-.5-2.8v-.3h.3c.7.9.9,2.1.5,3.2,0,0,0,0-.2,0"/>
    <path class="st2" d="M38.5,36.1h-.2c-.5-.9-.5-2.1.2-2.9h.3v.3c-.5.7-.6,1.8,0,2.5v.2h0"/>
    <path class="st2" d="M54.8,48.4h0c-2.7-3.2-4.4-7.1-5-11.2,0,0,0-.2.2-.2,0,0,.2,0,.2.2.6,4,2.3,7.9,5,11v.3h0"/>
  </g>
</svg>