<?xml version="1.0" encoding="UTF-8"?>
<svg id="Layer_1" xmlns="http://www.w3.org/2000/svg" version="1.1" viewBox="0 0 104.9 104.9">
  <!-- Generator: Adobe Illustrator 29.0.0, SVG Export Plug-In . SVG Version: 2.1.0 Build 186)  -->
  <defs>
    <style>
      .st0 {
        fill: #dcdbe6;
      }

      .st1 {
        fill: #e48867;
      }

      .st2 {
        fill: #f3be18;
      }

      .st3 {
        fill: #1a233a;
      }

      .st4 {
        fill: #49488a;
      }

      .st5 {
        fill: #e8a22c;
      }

      .st6 {
        fill: #2cbdaa;
      }
    </style>
  </defs>
  <circle class="st6" cx="52.4" cy="52.4" r="38.4"/>
  <g>
    <path class="st3" d="M56.4,19.3c3.7-1.4,6.6-4.5,6.2-8.5-.3-3.6-2.4-7.1-5.8-8.6-1.2-.5-2.5-.9-3.8-.9-5.5-.1-8.4,6.2-9,10.9-.3,2.5,1.7,3.6,3.4,5,2.6,2,5.6,3.4,8.9,2.1"/>
    <path class="st1" d="M54.4,18.9l1.8-4s1.5.4,2.2-.2c.3-.2.5-1.5.7-3.1v-.6c0-.2.8.4.9.2,0-.4-.8-1.7-.8-2.1,0-2-.3-4-1-4.8-1.7-1.7-7.8-2.1-8.7.9-.9,3-.2,6.3,2.3,8.7l-1.7,4.2,4.3,1v-.2Z"/>
    <path class="st3" d="M60.2,5.4c-3.2,3.3-5.2,8-9.6,9.3-.4-1.7-2.8-5.5-2.8-7.2s.7-3.5,2.1-4.5c1-.8,2.4-1.1,3.6-1.1,2.6,0,5.3,1.3,6.7,3.5"/>
    <path class="st3" d="M71.4,95.8l1.6,4.8s5,.3,5.1.6l-7.1,2-1.9-6.8,2.3-.6Z"/>
    <polygon class="st3" points="33.8 103.6 29.7 103.6 26.8 101.3 30.5 95.3 32.5 96.6 30.1 101 30.8 102.8 33.8 103.6"/>
    <polygon class="st3" points="61.2 75.7 70 99.8 72.6 99.3 68.2 73.8 61 51.1 42.5 51.1 39.2 74.2 28.7 98.1 30.9 99.6 44.7 78.3 45.8 75.8 52.3 61.2 61.2 75.7"/>
    <path class="st2" d="M49.8,14.6s3.8,1.2,5.7,3.4c1.9,2.2,5,8.5,5,9.2s-2.2,8.4-2.2,8.4l4.7,17.9s-14.6,2.3-21.9,0l3.8-14.2s-.9-5.8-1.2-6.7c-.7-2.6.5-6.7,1-9.5s2.7-5.9,3.4-6.6c.8-.6,1.7-1.9,1.7-1.9"/>
    <polygon class="st0" points="38.6 44.5 63.9 40 66.1 54 40.4 57.9 38.6 44.5"/>
    <path class="st1" d="M57.2,33.1l.9,3.7s8.3-3.1,8.8-3.3c0,0,1.5-1.2,1.8-1.4s1.2-2.5,1.3-2.7c0-.2-1.7-.3-1.7-.3,0,0,0-1.1,0-1.5,0-.2-.5-1.1-.6-.5l-.4,1.7-.6.6c-.3.4-.6,2.1-.6,2.1l-8.7,1.6h-.1Z"/>
    <polygon class="st0" points="67.7 31.3 68.8 27.1 69.7 23.8 70.9 24.3 68.7 31.4 67.7 31.3"/>
    <path class="st2" d="M56.4,32.9s1-2.8,2.9-1.7,3.4-.3,3.4-.3l3.2.5,1,2-9.7,4.1-.8-4.6Z"/>
    <path class="st1" d="M70,29.4c.2-.5-.3-1.9-.4-1.8-.2.1-.3.9-.3.9l.2.4s-.3-.1-.3,0,0,.6,0,.6v1l1-1.1h0Z"/>
    <path class="st2" d="M51.1,15.1c-1.8-1.2-7.9-1.4-8.6-.9-.7.5,1,2,.8,2.9-.2,1-3.8,2.3-2.6,4.4,1.2,2.2,4.8,4.7,4.8,4.7l5.6-11.2h0Z"/>
    <path class="st4" d="M52.9,59.4h0s0-.2,0-.3l2-3.2s.2,0,.3,0c0,0,0,.2,0,.3l-2,3.2h-.2"/>
    <path class="st1" d="M60,51.8c-.6,0-1-1.5-1.1-2.3-.8-.2-1.9-1.2-2.7-1.5,1.3,4.3,1.4,6.6,1.7,7.1.6,1.1.9,1.7,1.7,1s1.3.6,1.8,0,1.4.7,1.6-.2c.2-.9-1.2-2.1-1.2-2.1,0,0,.7-1.6-1.7-2.1"/>
    <path class="st2" d="M47.4,23.5c-.8,2.7,9,28.3,9,28.3l4.2-1s-1.6-5.9-1.3-8,.2-2.9-1.5-4.8c-1.7-1.9-.8-9-2-11.8s-7.8-4.5-8.3-2.6"/>
    <path class="st5" d="M56.4,38.3s0,0-.2,0c-.7-1.9-.6-3.9-.5-5.8v-1.6c0-2.6-.2-5.1-.9-7.6-.2-.6-.4-1.2-.8-1.7-.4-.4-1-.7-1.6-.4h-.2v-.2c.7-.3,1.5,0,2,.5s.7,1.2.9,1.8c.7,2.5,1,5.1.9,7.7v1.6c0,1.9-.2,3.9.4,5.7,0,0,0,.2,0,.2h0"/>
    <path class="st5" d="M53.3,42.6s0,0-.2,0c-.6-1.6-1.1-2.9-1.7-4.1-1.2-2.8-2.2-5.2-3-9,0,0,0-.2,0-.2,0,0,.2,0,.2.1.8,3.8,1.7,6,2.9,8.9.5,1.3,1.1,2.6,1.7,4.1,0,0,0,.2,0,.2h0"/>
    <path class="st5" d="M44.4,24.2h0s-.2-.1,0-.2c.6-3,2.2-5.7,4.5-7.6h.3v.3c-2.2,1.9-3.8,4.5-4.4,7.4,0,0,0,.1-.2.1"/>
  </g>
</svg>