<?xml version="1.0" encoding="UTF-8"?>
<svg id="Layer_1" xmlns="http://www.w3.org/2000/svg" version="1.1" viewBox="0 0 104.9 104.9">
  <!-- Generator: Adobe Illustrator 29.0.0, SVG Export Plug-In . SVG Version: 2.1.0 Build 186)  -->
  <defs>
    <style>
      .st0 {
        fill: #dcdbe6;
      }

      .st1 {
        fill: #fac916;
      }

      .st2 {
        fill: #ba755e;
      }

      .st3 {
        fill: #1a233a;
      }

      .st4 {
        fill: #c8484a;
      }

      .st5 {
        fill: #49488a;
      }

      .st6 {
        fill: #f4af77;
      }

      .st7 {
        fill: #ee7e23;
      }
    </style>
  </defs>
  <circle class="st1" cx="52.4" cy="52.7" r="38.4"/>
  <g>
    <path class="st3" d="M50.4,67.6l2.2-10.9h1.4l1,10.9h8.8c0-4.8.2-13.9,0-18.4l-20.8-.6c-.2,3.6-.3,13.5-.7,19h8.1Z"/>
    <path class="st3" d="M42.3,67.6c-.8,15.3-1.6,34.9-1.6,34.9l-3.1,2.3h4.8l8-37.1-4.5-.7-3.6.7h0Z"/>
    <path class="st3" d="M63.8,67.6l-6.5-3.6-2.3,3.6,3.8,37.1h4.8l-2.7-2.1s2.4-17.3,2.8-35.1"/>
    <path class="st5" d="M53.4,55.5s-.2,0-.2,0l-1.2-4.5s0-.2,0-.2c0,0,.2,0,.2,0l1.2,4.5s0,.2,0,.2h0"/>
    <path class="st0" d="M40.8,23.4c-1.4,1.7-4.1,8.9-4.1,10.2s-1.4,13.2.9,13.4c2.3.2,3.9-2.9,3.9-2.9,0,0-.7-20.7-.7-20.7Z"/>
    <path class="st7" d="M64.1,24.4l-1.4,25.8-19.7-1.6-2.6,1.7c-1.1-6.3-1.9-13.8-.8-20.3.3-2.1,1.3-7,1.8-9.1.2-1.1,9.3-6,10.9-5.9,1.7,0,2.4-.1,5,.5,2.9.7,7.9,3.5,9,4.8s2.7,18.6,2.4,20.2c-.9,4-3.1,11.1-3.1,11.1l-2.7-1.4"/>
    <path class="st4" d="M46.7,42.7h-.2v-.2c3.4-1.8,6.4-4.4,8.8-7.5h.3v.2c-2.4,3.1-5.5,5.7-8.9,7.6h0"/>
    <path class="st4" d="M52.7,45h0v-.2c2.3-2.9,3.9-5.4,5-8.7,0,0,0,0,.2,0,0,0,0,0,0,.2-1.1,3.3-2.8,5.8-5.1,8.8h0"/>
    <path class="st4" d="M43.6,47.2h0s-.2,0-.2-.2c.2-3.2.5-6.2.8-9.2.2-2.2.4-4.5.6-6.8.2-2.8.3-8.3-1-10.5v-.2h.2c1.4,2.3,1.3,7.8,1.1,10.7-.2,2.4-.4,4.6-.6,6.8-.3,2.9-.6,6-.8,9.1,0,0,0,.2-.2.2"/>
    <path class="st6" d="M50.7,11.3v4.2s3.4,3.6,6.4,0l-.3-4.2h-6.2,0Z"/>
    <path class="st6" d="M58.9,8.3h-.3c.5-3,.3-6.8-4.7-6.6-3,0-3.8,2.8-4,5.6-.2,0-.4,0-.7,0-1,.3-.3,2.9.7,3.3.4,2.6,1.8,4.3,3.7,4.4,1.8.1,3.2-1.3,4.1-3.4,1.1-.2,2.1-2.7,1.2-3.2"/>
    <path class="st2" d="M53.9,15.1h-.2c-1,0-1.9-.6-2.6-1.4v-.3h.2c.6.8,1.4,1.2,2.4,1.3,1,0,1.9-.3,2.6-1.2h.3v.3c-.8.8-1.7,1.3-2.7,1.3"/>
    <path class="st6" d="M40.3,50.3s2.7,5.3,3.6,2.9c.9-2.4-1-4.6-1-4.6,0,0-2.6,1.7-2.6,1.7Z"/>
    <path class="st3" d="M49.9,7.2l.6,1h.7v-1.7s.8-.9.9-1.8l5.1.4s-.2,1.2.2,1.7v2h.6l.6-.5s1.2-4.4.7-5.6c-.5-1.1-1.5-.7-1.5-.7C57.8,2,56.1,0,53.8.7s-4.2,2.1-4.6,3.1c-.4,1,.6,3.5.6,3.5"/>
    <path class="st6" d="M62.7,50.2s-2.6,3-1.3,4.8,4.1-3.4,4.1-3.4c0,0-2.4-1.4-2.7-1.4"/>
    <path class="st4" d="M62.7,49.8s0,0-.2,0c0,0,0-.2,0-.2,0,0,.4-.2.5-.9,0-.2-.2-.6-.3-1-.5-1.1-1.2-2.7.3-4.1,1.2-1.1.9-2.6.6-3.8-.2-.8-.3-1.4,0-1.9.3-.6.3-6.6.4-10.9,0-3.5,0-5.7,0-6.1,0,0,0-.2.2-.1,0,0,.2.1,0,.2,0,.4,0,3.1,0,6,0,5.9,0,10.4-.4,11.1-.2.4,0,.9,0,1.6.3,1.3.7,2.9-.7,4.2-1.3,1.2-.7,2.6-.2,3.7.2.5.4.9.4,1.2,0,1-.8,1.2-.8,1.2h0"/>
    <path class="st5" d="M45,55h0v-.2c.5-.7.8-1.6.7-2.4,0-.8-.6-1.7-1.2-2.2v-.2h.2c.8.6,1.3,1.5,1.4,2.4,0,.9-.2,1.9-.8,2.7h0"/>
    <path class="st5" d="M60.1,57.6s-.2,0-.2,0c0,0,0-.2,0-.2.9-.2,1.8-.7,2.4-1.4h.3v.3c-.7.7-1.6,1.3-2.6,1.5h0"/>
    <path class="st0" d="M44.4,18.5c.9,1.7.7,8.7.7,8.7v2.9s3.8-7.3,2.8-13.4l-3.4,1.8h0Z"/>
  </g>
</svg>