<?xml version="1.0" encoding="UTF-8"?>
<svg id="Layer_1" xmlns="http://www.w3.org/2000/svg" version="1.1" viewBox="0 0 104.9 104.9">
  <!-- Generator: Adobe Illustrator 29.0.0, SVG Export Plug-In . SVG Version: 2.1.0 Build 186)  -->
  <defs>
    <style>
      .st0 {
        fill: #e48867;
      }

      .st1 {
        fill: #f2f2f3;
      }

      .st2 {
        fill: #f3be18;
      }

      .st3 {
        fill: #a1d7e9;
      }

      .st4 {
        fill: #1a233a;
      }

      .st5 {
        fill: #48b7a7;
      }

      .st6 {
        fill: #dcdbe6;
      }
    </style>
  </defs>
  <circle class="st1" cx="52.4" cy="52.4" r="38.4"/>
  <g>
    <path class="st6" d="M36.8,100.3l-.8,2.1s-3.9,1.8-3.9,2.2h6.9l.5-4.3h-2.6Z"/>
    <path class="st6" d="M67.6,92.6l1.6,1.4s-.2,4.5,0,4.8l3.5-5.7-3.5-2.5-1.7,2Z"/>
    <path class="st5" d="M49.7,67.8s1.2,10.7,1.4,11.2c.2.4,16.8,14.7,16.8,14.7l2.7-2.7-12.7-17.5,1.8-21.4-10.1,15.8Z"/>
    <path class="st5" d="M60.1,40.6c-4.5.5-9.1.8-13.1,2.9l1.1,3.5s-6.2,18.1-6.5,19.6c-.2,1.5-5.9,34.7-5.9,34.7h4l9.9-32.7s13.1-15.5,12.5-21.7c-.3-2.8-1.1-4.8-2-6.3"/>
    <path class="st0" d="M48.2,19.8s2.1-5.7.9-5.9c-.8-.2-2.1,1.5-3,1-.3-.1-.9-1.9-1.3-3.1-.1-.3-.8.5-.9.2-.1-.4.5-2.6.3-2.9-3.9-5.5,5.8-10.9,8.5-6.4,1.7,2.8,1.9,6.4,0,9.5l2.9,3.8-7.4,3.9Z"/>
    <path class="st3" d="M46.7,22.5c0-1.8.3-3.5.3-5.3,1.6-2.8,5.6-4.7,8.8-5.3.6,1.2,1.1,2.3,1.7,3.4-2.7,2.8-7.4,5.4-10.8,7.3"/>
    <path class="st4" d="M57.5,15.3s-1.3-1-4.7.5c-.8.4-7.4,7.5-7.6,8.9-.1,1.4,1.9,6.5,1.9,6.5l-2.1,18.4,19.4-5.4-4.3-10.4s-.4-9.1-2.6-18.5"/>
    <path class="st4" d="M50.3,68s0,0-.1,0c0,0,0-.2,0-.3,0,0,6.3-8.3,8.6-12,0,0,.2-.1.3,0,0,0,.1.2,0,.3-2.3,3.7-8.5,12-8.6,12,0,0,0,0-.1,0"/>
    <path class="st0" d="M66.7,48c.4-.5-.1-1.8-.5-2.5.5-.6.8-2.2,1.2-2.8,1.6,4.3,2.9,6.2,3,6.7.2,1.2.3,1.9-.7,1.8s-.6,1.3-1.4,1.1c-.8-.2-.6,1.4-1.4.8-.7-.6-.3-2.4-.3-2.4,0,0-1.5-.9,0-2.7"/>
    <path class="st0" d="M38.4,43.1c.5.3,1.7-.5,2.4-1.1.7.4,2.3.3,3,.6-3.8,2.5-5.4,4.2-5.9,4.4-1.2.5-1.8.7-1.9-.3-.1-1-1.4-.3-1.4-1.2,0-.8-1.5-.3-1.1-1.2.4-.8,2.3-.9,2.3-.9,0,0,.5-1.7,2.6-.5"/>
    <path class="st4" d="M57.5,15.3c2.3,1.7,12,30.4,12,30.4l-4,1.7s-2.3-5.7-3.9-7.2c-1.5-1.6-2-2.2-1.8-4.7.2-2.5-6.7-10-7.5-13-.8-3,3.5-8.4,5.1-7.2"/>
    <path class="st3" d="M63,41.4c0,0-.1,0-.2-.1-.5-1.4-1.1-2.6-1.9-3.7-.3-.4-.6-.8-1-1.1-.5-.4-.9-.9-1.3-1.5-.4-.8-.6-1.7-.8-2.6-.2-.8-.3-1.6-.7-2.3-.5-1.1-1.5-2-2.4-2.9-1-1-2.1-2.1-2.6-3.5-.3-1-.4-2.2,0-3.4.3-1.2.8-2.3,1.3-3.1,0,0,.2-.1.2,0,0,0,.1.2,0,.2-.4.8-1,1.9-1.2,3-.3,1.1-.2,2.2,0,3.2.5,1.3,1.5,2.3,2.5,3.3.9.9,1.9,1.8,2.4,3,.4.7.5,1.6.7,2.3.2.9.4,1.7.8,2.5.3.6.8,1,1.2,1.4.4.4.8.7,1.1,1.2.7,1.1,1.4,2.4,1.9,3.8,0,0,0,.2-.1.2,0,0,0,0,0,0"/>
    <polygon class="st4" points="39.5 42 42.4 44.7 48.9 39.2 47.1 31.2 39.5 42"/>
    <path class="st3" d="M46.4,40.2s0,0,0,0c0,0-.2-.1-.1-.2.5-2.5.9-5.1,1.2-7.6,0,0,.1-.2.2-.2.1,0,.2.1.2.2-.3,2.6-.7,5.1-1.2,7.7,0,0,0,.1-.2.1"/>
    <path class="st2" d="M60.6,13.5c-.7-.2-1.3-.6-1.9-1.1-1.2-1.1-1.3-3.4-1.6-4.9-.4-1.7-.7-3.5-1.8-5-2.4-3.1-7.3-2.4-10.6-1.6-1.2.3-2.3.8-3.1,1.7-1.6,1.9-.4,5,2.3,4.5.7-.2,1.7-1,2.5-.8.4,0,.7.4.8.8,0,.4,0,.8.2,1.1.4.3,1,0,1.4.2.3.1.5.4.5.8,0,.3,0,.6-.2.9.2,0,.5,0,.7,0-.3,0,1.2-3.8,1.8-1.3.1.5,0,1.1-.2,1.6-.1.5-.3,1.1-.2,1.6.2.8.9,1.3,1.7,1.6.7.3,1.5.4,2.2.9,1.6,1,2,3.1,2.5,4.9.5,1.8,1.2,3.6,2.2,5.2.4.7,1,1.6,1.9,1.6.6,0,1.1-.4,1.5-.7,1.5-1.2,3.1-2.4,4.1-4.1.9-1.7,1.1-4-.2-5.4-1.6-1.8-4.4-1.6-6.6-2.3"/>
  </g>
</svg>