<?xml version="1.0" encoding="UTF-8"?>
<svg id="Layer_1" xmlns="http://www.w3.org/2000/svg" version="1.1" viewBox="0 0 104.9 104.9">
  <!-- Generator: Adobe Illustrator 29.0.0, SVG Export Plug-In . SVG Version: 2.1.0 Build 186)  -->
  <defs>
    <style>
      .st0 {
        fill: #ba755e;
      }

      .st1 {
        fill: #f2f2f3;
      }

      .st2 {
        fill: #f3be18;
      }

      .st3 {
        fill: #1a233a;
      }

      .st4 {
        fill: #f4af77;
      }

      .st5 {
        fill: #e8a22c;
      }

      .st6 {
        fill: #dcdbe6;
      }
    </style>
  </defs>
  <circle class="st1" cx="52.4" cy="52.4" r="38.4"/>
  <g>
    <path class="st4" d="M48,56c-1.6,3.7-2.3,14.2-2.1,15.3.2,1.1,12.5,27.2,12.5,27.2l2-1.3-6.8-23.2,2.3-18.1h-7.9Z"/>
    <path class="st4" d="M55.9,51.7c-.5.6-4,23.1-4.6,24.9-.6,1.8.3,15.1-1.7,23.3h3.1s4.9-15.1,3.9-21l5.9-20.1-6.8-7.1Z"/>
    <polygon class="st4" points="44.4 53 49.1 42.6 52.8 46.6 45.1 55.6 44.4 53"/>
    <path class="st6" d="M49.1,42.6l.8-2s-1-2.5-.8-3.2c.2-.7,2.8-2.1,2.8-2.1l1.6,4.7-2.4,4.7-2-2.1Z"/>
    <path class="st3" d="M47.6,56.8l15,2s1.2-4,2.4-6.1c1.8-3.5-.1-11.5-.1-11.5l-12.8-1.8s-1.7,5-4.5,17.4"/>
    <path class="st2" d="M46.6,5.1s2.4-6.7,8.4-4.8c5.5,1.8,3.9,7.2,3.9,7.2l-12.3-2.4Z"/>
    <path class="st2" d="M42.8,3.9c1.1-2.6,20.9.6,20.9,4.2,0,3.7-22.3-1-20.9-4.2"/>
    <path class="st3" d="M46.2,7.4c0,.9.2,1.8.5,2.7.3.9.6,1.7.3,2.7-.2.7-.6,1.3-.7,2-.1.7,0,1.3.5,1.9,0-.7.6-1.2,1.2-1.5.6-.2,1.3-.1,2,0,.7,0,1.4.2,2,0,1.4-.3,2.3-1.9,1.9-3.3-.3-.9-.9-1.6-1.6-2.2-.9-.8-1.8-1.6-2.8-2.1s-2.2-.6-3.3-.2"/>
    <path class="st4" d="M58.8,8.4c-4.1-.8-8.2-1.6-12.3-2.4.2.7,1,1.5,2,2.8.3.4,0,2.4.1,2.8.1.4.5-.9.7-.6.5,1.3.6,1.8,1,2.4.7.8,2.4.1,3.2.3,1.3.3.7,6,.7,6l5.1-6-1.9-2.4c.7-1.2,1.2-1.6,1.4-2.9"/>
    <path class="st3" d="M58.8,7.5l-12.3-2.4s-.5,1-.4,2.2l6,.4c-.4.9-.3,2,.3,2.7.3.4.8.7,1,1.1.3.8-.1,1.6-.5,2.3-.4.7-.9,2.2-.4,2.9.2-.5.9-1.3,1.4-1.2.5,0,1.1.2,1.6.2.7-.1,1.2-.6,1.6-1.2.4-.5.8-1.1,1.4-1.5.6-.4,1.4-.4,1.9.1.5-1.7-.5-4.4-1.6-5.8"/>
    <path class="st6" d="M64.8,41.2s2.1-9.6,2.2-10.2c.5-2-.3-7.5-.4-8.9-.1-1.3-3.4-6.3-4.3-6.6-.8-.3-3-1.8-3-1.8l-5,4.4s-1.5,2.3-3.4,4.8c-1.9,2.5-3.8,4.7-.6,8.1l1.6,8.8,12.9,1.4Z"/>
    <path class="st4" d="M53.4,30.2l-.6,4.7s-8.1-4-8.7-4.3c-2.2-.9-4-2.1-4.3-2.4-.4-.3-1.4-3.3-1.4-3.6,0-.3,2.2-.3,2.2-.3l-.5-2.5s.9-.1,1,0c.1.2,1.2,2.5,1.7,3,.4.5.6,2.7.6,2.7l10,2.6Z"/>
    <polygon class="st3" points="40.6 24.3 40.1 21.8 39.2 17.6 37.6 18.1 39.3 24.4 40.6 24.3"/>
    <path class="st3" d="M55.4,30.8l-1.3-.3c0,0-.2-.1-.1-.2,0,0,.1-.2.2-.1l1,.2c0-.4.3-.8.7-.9.3-.2.8-.2,1.3,0,.3,0,1.2.2,1.7.3-.2-2.1-.2-6.3.1-8.3.1-.8.3-1.7.7-2.6.4-.9,1.1-1.6,1.9-1.9,0,0,.2,0,.2,0s0,.2,0,.2c-.7.3-1.3.9-1.7,1.7-.4.8-.5,1.6-.6,2.5-.3,2.1-.3,6.4,0,8.5v.2s-.2,0-.2,0c-.4,0-1.5-.2-2-.3-.5-.1-.8-.1-1.1,0-.3.1-.5.5-.4.8,0,0,0,0,0,0h-.3c0,.1,0,.2,0,.2,0,0,.1,0,.1,0h0Z"/>
    <path class="st3" d="M59.2,37.6c-1.6,0-3.3-.3-4.8-.9h0s0,0,0,0c-.1-.2-.4-.6-.4-1l-.8-.3c0,0-.1-.1-.1-.2,0,0,.1-.1.2-.1l1,.3h0c0,.4.2.8.3,1,2.5.9,5.4,1.1,7.8.4,0,0,.2,0,.2.1,0,0,0,.2-.1.2-1.1.3-2.2.4-3.3.4"/>
    <path class="st0" d="M51,82.8c0,0-.2,0-.2-.2,0-3.2.1-10.2.3-11.6.2-1.9,2.3-12.2,2.4-12.7,0,0,.1-.2.2-.1,0,0,.2.1.1.2,0,.1-2.2,10.8-2.4,12.6-.2,1.5-.3,8.4-.3,11.6,0,0,0,.2-.2.2h0Z"/>
    <path class="st0" d="M55.3,91s0,0,0,0c0,0-.2-.1-.1-.2.1-.8.4-1.9.6-2.9.2-1,.4-2,.6-2.9,0,0,.1-.2.2-.1,0,0,.2.1.1.2-.2.8-.4,1.9-.6,2.9-.2,1-.4,2-.6,2.9,0,0,0,.1-.2.1"/>
    <polygon class="st6" points="58.5 98.5 59 100.4 58.1 103.6 56.9 104.9 59 104.9 60.9 102.3 61.5 103.2 62.4 102.5 60.4 97.3 58.5 98.5"/>
    <polygon class="st6" points="52.7 100 52 104.9 50.7 104.9 50.7 103.3 48.6 104.9 45.5 104.9 48.3 103 49.6 100 52.7 100"/>
    <path class="st5" d="M58.5,5.3s0,0,0,0c-3.3-.9-6.8-1.6-10.2-2.1,0,0-.2-.1-.2-.2,0,0,0-.2.2-.2,3.4.5,6.9,1.2,10.2,2.1,0,0,.2.1.1.2,0,0,0,.1-.2.1"/>
    <path class="st4" d="M45,56s.6-1.9.5-2.4c-.1-.5-1.1-.6-1.1-.6,0,0-1.4.2-1.7,0-.4-.2-1.6-.1-1.7.1s.9.6.9.6l-3,3.9c-.5.6,0,.6.3.6.2,0,1.6-1.2,1.6-1.2,0,0,.3.7.5.7s.6,0,.6,0c0,0,.4.7.6.7.2,0,.6-.9.6-.9,0,0,.5.2.6.1.1,0,1.3-1.6,1.3-1.6"/>
    <path class="st3" d="M51.9,39.7c0,0-.2,0-.2-.1l-.7-3.4c0,0,0-.2.1-.2,0,0,.2,0,.2.1l.7,3.4c0,0,0,.2-.1.2,0,0,0,0,0,0"/>
  </g>
</svg>