<?xml version="1.0" encoding="UTF-8"?>
<svg id="Layer_1" xmlns="http://www.w3.org/2000/svg" version="1.1" viewBox="0 0 595.3 603.3">
  <!-- Generator: Adobe Illustrator 29.0.0, SVG Export Plug-In . SVG Version: 2.1.0 Build 186)  -->
  <defs>
    <style>
      .st0 {
        fill: #fbcf30;
      }
    </style>
  </defs>
  <path class="st0" d="M107,495.1c51.2-12.1,87.4-50.1,104.5-69.2,18.7-19.8,49.6-66.1,86.1-146.3,36.3-80.2,71.8-137.7,94.2-163.2,19.9-24.8,66.5-72.8,128.7-81.6,41.9-5.3,65.4,11.2,78,29.6v-9.6c-13.6-16.6-36.8-29.8-75.4-25.2-65.2,8.9-113.4,59.2-133.8,85-21.8,25.2-56.4,81.3-91.6,158.6-35.4,77.3-64.8,122.7-82.5,142.3-17.2,20-53.7,60.2-105.9,73-52.5,11.8-78.8-16.9-88.1-34.8-12.4-13.3-11.2-42.4-24.4-101.6v11.7c11,57.9,10.2,85.8,23,98.7,9.4,17,35.8,43.7,87.3,32.5"/>
  <path class="st0" d="M100.4,513.4c53.5-11.5,91.4-49.7,109.1-68.9,19.3-19.8,51.7-66.2,88.1-146.6,36.2-80.4,70.1-138.4,91.8-164.2,19.2-25.1,63.9-73.9,123.9-83.4,55.6-7.9,78,25.4,85.2,48.8v-14.5c-10.4-22.5-34.1-46.3-82.7-39.7-63,9.7-109.3,60.8-129,86.9-21.1,25.6-54.1,82.3-89.2,159.9-35.2,77.6-65.9,123.1-84.3,142.8-17.8,20.1-56,60.6-110.5,72.7-54.9,11.1-81.5-18.7-90.3-37.3-9.9-11.4-10.6-34.1-15.8-75.9v26.3c3.2,31.1,5.2,48.7,14.1,58.3,9.1,17.5,35.9,45.5,89.6,34.9"/>
  <path class="st0" d="M118.9,456.4c46.8-13.2,79.8-50.4,95.7-69.3,17.5-19.4,46-65.2,82.9-144.1,36.9-78.9,75.6-135,99.6-159.6,21.5-23.9,71.5-70.1,137.9-77.2,28.4-2.7,48.7,3.4,63.4,12.8v-6.8c-7.7-4.3-17.2-7.3-28-9.2h-41.2c-65.2,10.1-113.7,55-134.8,78.8-23.3,24.2-61,78.8-96.8,154.7-35.9,75.9-63.1,120.6-79.7,139.9-16.1,19.7-49.3,58.9-97,72.8-47.9,13-74-12.7-84.3-29.2-14.2-13-13.3-43.4-39.8-108.4v5.6c25.5,68.1,24,98.7,39,111.8,10.2,15.6,36.2,39.7,83.2,27.3"/>
  <path class="st0" d="M113.2,476.1c49-12.6,83.5-50.3,100.1-69.4,18-19.6,47.7-65.7,84.4-145.4,36.5-79.7,73.6-136.6,96.9-161.6,20.7-24.4,69-71.6,133.3-79.5,34.1-3.8,56.3,5.9,70.7,19.1v-7.6c-14.7-11.8-36.3-19.8-68.2-16.5-67.4,8.1-117.3,57.5-138.6,82.8-22.6,24.7-58.7,80.1-94.2,156.9-35.6,76.8-63.8,121.9-81,141.4-16.6,19.9-51.4,59.6-101.4,73-50.2,12.4-76.3-14.8-86.1-32-13.5-13.5-12.2-44.1-32.5-108.5v7.3c18.8,66.4,17.2,96.7,31.3,110.1,9.8,16.3,35.9,41.8,85.2,30"/>
  <path class="st0" d="M492.8,508.2c-42.1,17.9-70.3,53.5-88.3,70.4-6.7,6.7-15.9,15.9-28.1,26.4h12.2c8.6-7.4,15.6-14.1,20.9-19.2,17.7-16,45.7-49.5,87.4-66.7,36.3-14.5,74-8.5,101.5-3.7v-8.6c-28.3-5.7-67.7-13.9-105.6,1.5"/>
  <path class="st0" d="M505.2,539.4c-43.9,17.5-73.8,49.5-93,65.5h14.6c19-16.1,46-40.1,83.2-54.5,30.7-11.5,62.2-11.4,88.5-9.3v-9.7c-27.5-3.1-60.9-4.5-93.3,7.9"/>
  <path class="st0" d="M519.6,571.3c-24.8,9.2-45.5,21.7-62.6,33.6h21.3c13.6-8.1,29.2-15.9,46.8-22.2,25-8.7,50.3-11.5,73.3-12.1v-10.9c-24.5-.1-51.9,2.1-78.8,11.7"/>
  <path class="st0" d="M467.3,419.3c-37.3,17.6-62.1,59.4-77.3,79.5-14.7,20.2-41.1,60.5-92.4,103.8-1,.8-2,1.5-2.9,2.3h7.7c50.4-41.7,76.8-80.4,91.5-100,14.8-19.2,39.2-58.6,75.6-75.6,36.2-16.2,71.4,1.3,94.6,10.4,9.4,3.5,19.7,8.3,34.4,14.6v-6c-15-6.9-25.3-12.2-34.7-15.9-23.7-10.1-59.3-29.8-96.4-13"/>
  <path class="st0" d="M474.1,448.1c-38.3,17.7-63.9,57.7-79.8,76.8-13.2,16.6-35.9,47-76.1,80h8.9c37-30.4,58.6-58.1,71.4-73.6,15.6-18.2,40.8-55.8,78.4-72.9,37.4-16.4,75.1-1.2,99.9,6.5,6.4,1.9,13.4,4.3,21.7,7.2v-6.7c-8.9-3.3-16.1-6.1-22.7-8.3-25.3-8.7-63.5-25.9-101.7-9"/>
  <path class="st0" d="M482.5,477.7c-39.9,17.8-66.6,55.6-83.5,73.7-10.6,12-27.6,31.6-53.9,53.5h10.6c22.8-19,38-35.8,47.9-46.6,16.6-17.2,43-52.8,82.3-70,39.2-16.5,79.7-3.7,106,2.5,2.1.5,4.3,1.1,6.6,1.6v-7.7c-2.9-.8-5.6-1.6-8.3-2.3-26.9-7.1-67.9-21.7-107.7-4.7"/>
  <path class="st0" d="M541.2,361.6c-18.9-14.2-48.2-40.4-84.8-24.5-36.7,16.9-61.6,63.6-75.6,86.4-14.1,22.7-37.3,69.4-83.2,124.1-20,23.7-40.6,42.3-59.8,57.2h6.2c17.4-13.7,35.7-30.4,53.6-50.8,48.1-55.4,71.9-102.7,86.3-125.5,13.6-21.9,37.7-65.9,73.1-82.3,35.2-15.5,64.2,8.2,82.9,21.3,13.8,8.1,26.7,22,58.6,42.9v-4.4c-31.3-21.6-43.9-36-57.3-44.5"/>
  <path class="st0" d="M458.6,363.7c-36.5,17.3-61,62.4-75.3,84.4-14.1,22-38.2,66.8-85.7,117.9-14.2,15.1-28.5,27.8-42.4,38.9h6.5c11.9-9.5,24-20.3,35.9-32.5,49.7-51.5,74.5-96.8,89.1-118.8,13.9-21,37.8-63.7,73-80.3,35.2-15.8,66,6.1,86.1,17.8,12.9,6.6,26,17.3,52.7,32.7v-4.8c-26.4-16.2-39.3-27.4-51.9-34.3-20.5-12.9-51.6-37-88-20.9"/>
  <path class="st0" d="M462.2,391.1c-36.6,17.4-61.1,61-75.8,82.1-14.4,21.1-39.5,63.8-88.8,111.1-7.9,7.5-15.8,14.2-23.7,20.6h7c5.5-4.5,11.1-9.2,16.7-14.2,51.7-47.6,77.6-90.6,92.4-111.7,14.3-20.1,38.2-61.3,73.9-78.1,35.4-16,68.4,3.8,90,14.2,11.5,5,23.8,12.7,44.6,23.2v-5.4c-20.9-11.2-33.1-19.4-44.4-24.7-22.1-11.5-55.4-33.5-91.9-17"/>
  <path class="st0" d="M297.6,499.2c43.3-65.1,66.4-117.5,81.2-142.2,13.5-23.6,39.8-71.1,77.6-86.7,37.8-14.5,62.2,14.5,76.7,30.8,14.8,12.3,23.3,35.7,65.4,74.4v-3.6c-40.6-38.9-48.8-62.8-62.9-75.5-14.5-17.6-39.1-49.4-78.6-34.5-39.6,16-66.9,66.2-80.8,90.9-14.5,24.5-37.1,76.2-78.6,140-39.7,60.3-82.7,95-109,112.1h6.1c27.7-18.9,66.7-52.1,102.9-105.7"/>
  <path class="st0" d="M297.6,517.5c44.8-62.1,67.9-113,82.4-137.2,13.4-23.1,38.7-69.6,75.5-85.5,36.6-14.9,62.4,12.6,78.1,27.8,14.7,11,25,31.2,64.9,63.9v-3.9c-38.6-33.1-48.6-53.9-62.7-65.3-15.9-16.5-41.8-46.5-80.1-31.3-38.3,16.4-64.6,65.5-78.4,89.7-14.2,24-36.9,74.3-79.7,135.3-32,45.1-66.1,75.1-92.3,93.8h5.7c25.8-18.9,57.1-47,86.6-87.4"/>
  <path class="st0" d="M297.6,535.8c46.3-58.9,69.7-108.1,84.1-131.6,13.5-22.5,38-67.9,73.9-84,35.7-15.2,63,10.5,80.2,24.6,14.4,9.6,26.3,26.6,62.6,53.3v-4.1c-35.4-27.2-47-44.9-60.8-54.8-17.5-15.4-44.9-43.6-82.2-27.9-37.4,16.6-62.8,64.6-76.6,88.2-14.1,23.4-37,72-81.2,130-25.9,33.5-52.9,57.9-76.2,75.5h5.9c22.1-16.9,46.7-39.5,70.3-69.1"/>
  <path class="st0" d="M297.6,444.3c39.9-72.5,64.1-128.5,80.2-154.4,14.4-25,44.6-74.6,87.1-88.8,42.5-13.3,64.2,20,75,39,14.2,15.9,15.9,47.8,58.6,103.7v-3.5c-40.4-55.4-41.9-87.6-55.1-103.9-10.6-20.4-32.3-56.5-77-42.9-44.6,14.7-76.2,66.9-91,93-15.7,25.7-39.4,80.7-77.8,151.4-38.7,70.5-80.7,110.8-104.5,128.7-12.8,9.8-34.5,25.3-63.2,38.3h8.5c21.9-10.7,38.9-22.3,49.6-30,25-17.7,69.3-58.2,109.6-130.5"/>
  <path class="st0" d="M297.6,462.6c40.8-70.1,64.5-125.2,80.1-150.8,13.9-24.6,42.7-73.6,83.5-88.4,40.7-13.8,63.1,18.3,75.1,36.4,14.5,14.8,18.6,44,62.2,94.4v-3.5c-41.4-50.1-45.4-79.8-59-94.9-11.9-19.5-34.3-54.3-77-40.2-42.8,15.2-72.8,66.9-87.2,92.5-15.2,25.4-38.5,79.6-77.7,148.1-39.6,68.5-83,107.4-107.5,124.6-8.8,6.3-21.6,15.1-37.9,24h6.9c10.5-6,19.3-11.7,25.7-16,25.6-17.1,71.4-56.2,112.7-126.3"/>
  <path class="st0" d="M297.6,480.9c42.1-67.8,65.3-121.6,80.5-146.8,13.7-24.2,41.1-72.5,80.3-87.6,39.1-14.2,62.5,16.4,75.7,33.7,14.7,13.6,21,39.9,64.5,84.6v-3.5c-41.7-44.7-47.7-71.5-61.6-85.5-13.2-18.6-36.6-51.9-77.6-37.4-41.1,15.6-69.6,66.6-83.7,91.8-14.7,25-37.6,78-77.9,144.3-40.8,66.3-85.5,103.5-110.5,120.1-4.3,2.9-10,6.5-16.1,10.3h6.6c1.4-.8,3-1.8,4.2-2.6,26.2-16.4,73.3-53.7,115.9-121.4"/>
  <path class="st0" d="M64.8,592.9c64.6-7.9,111-44.9,132.2-63.1,22.9-19,62.7-63,100.6-140.4,37.5-77.4,64.5-135.4,82.5-161.9,15.8-25.5,51.1-75.9,99.9-88.7,48.6-11.8,69.1,24.8,77.1,45.9,12.8,18.4,8.7,56.3,41.4,124.8v-4.2c-29.9-66.8-25.7-104.7-37.4-123.3-7.5-22.5-27.8-62-79-50-51.2,13.1-88,66.1-104.3,92.8-17.4,26.2-44,83.1-80.1,158.3-36.5,75.1-74.2,118.6-95.9,137.7-21.2,19.2-68.2,58.7-134.3,67.2-31.4,3.5-54.2-2.4-70.7-11.7v6.4c16.3,8.3,38.4,13.4,68.1,10.3"/>
  <path class="st0" d="M297.6,407.7c38.2-76,64.1-133.5,81.4-159.9,15.3-25.4,48.8-75.7,95.4-89,46.5-12.3,67.3,23.3,76.1,43.7,13.3,17.7,10.9,54,48.1,119.2v-3.7c-34.5-64-31.9-100.4-44.2-118.4-8.5-21.9-29.1-60.3-78-47.8-49,13.7-83.9,66.6-99.6,93-16.8,26.2-42.3,82.6-79,156.6-37.1,73.9-76.2,116.4-98.7,135.1-21.9,18.8-70.5,57.6-138.8,65.3-26.7,2.6-47.4-1.2-63.4-7.9v5.8c5.8,2.2,12.2,3.9,19.2,5.2h51.6c61.4-9.5,105.9-42.7,126.6-59.6,23.6-18.7,64.9-61.7,103.5-137.6"/>
  <path class="st0" d="M297.6,426c39-74.4,64-131.2,80.6-157.4,14.8-25.3,46.7-75.2,91.1-89,44.4-12.8,65.6,21.7,75.4,41.4,13.8,16.9,13.4,51.1,53.8,112v-3.5c-38-60-37.4-94.6-50.2-111.7-9.6-21.2-30.6-58.5-77.3-45.5-46.7,14.2-79.9,66.8-95.1,93.2-16.2,26-40.8,81.9-78.3,154.2-37.9,72.4-78.4,113.8-101.6,132.1-17,13.8-49.7,38.7-94.8,53.1h11.1c36.5-13.6,63.7-33,78.7-44.5,24.3-18.2,67.1-60,106.5-134.3"/>
  <path class="st0" d="M86.5,547.4c58-10.2,99.4-48.3,118.4-67.3,20.8-19.7,56-65.7,92.6-145.6,36.4-80,67.2-138.6,87.3-164.8,17.8-25.6,58.8-75.4,114.2-86.3,55.4-10,76.2,28.8,82.2,51.4,10.3,18.1,5.2,54.2,17.2,117.4v-11.6c-8.6-56.7-3.9-90.2-12.8-107.5-5.4-24-25.9-65.7-84.2-55.6-58.2,11.1-100.7,63.4-119,90-19.5,26-49.7,83.2-84.9,160.7-35.4,77.3-68.7,122.5-88.5,142.2-19.1,20-60.9,60.5-120.1,71.3-54.1,8.9-81.6-16.7-92.3-36.2v11c12.3,17.8,39.8,38.8,89.9,30.9"/>
  <path class="st0" d="M79.3,563.4c60.3-9.5,103.4-47.4,123.1-66.2,21.5-19.6,58.2-65.1,95.1-144.4,36.5-79.3,66.1-137.9,85.5-164.4,17.1-25.6,56.1-75.7,109.3-87.3,53.2-10.6,73.7,27.6,80.2,49.7,11.4,18.8,5.8,57.6,25.9,126.7v-7.1c-16.8-65.3-11.4-103.2-21.6-121.7-6-23.6-26.2-64.6-82.2-53.9-55.9,11.8-96.4,64.6-114,91.2-18.8,26.2-47.8,83.6-83.1,160.4-35.6,76.8-70.4,121.6-90.8,141.2-19.8,19.7-63.3,60.1-124.9,70.2-43.8,6.4-70.4-8.3-85.2-24.5v8.7c15.3,14.5,41.3,27.1,82.6,21.3"/>
  <path class="st0" d="M72.1,578.5c62.5-8.7,107.3-46.2,127.7-64.8,22.2-19.3,60.4-64.1,97.8-142.6,37-78.5,65.2-137,83.8-163.4,16.5-25.6,53.6-75.9,104.5-88.1,50.9-11.2,71.4,26.2,78.6,47.8,12.2,18.8,6.8,57.7,33.9,128.2v-5.6c-23.8-67.5-18.8-106.1-29.9-124.9-6.7-23.1-26.8-63.4-80.4-52.1-53.6,12.5-92.2,65.4-109.1,92.1-18.1,26.2-45.8,83.5-81.5,159.6-36,76.1-72.2,120.3-93.3,139.7-20.5,19.5-65.7,59.5-129.7,68.8-36.9,4.7-61.7-4.5-77.9-16.9v7.4c16.3,11.1,40.5,19.1,75.4,14.8"/>
  <path class="st0" d="M93.6,530.8c55.7-10.8,95.4-49.1,113.8-68.2,20-19.8,53.8-66,90.2-146.3,36.2-80.3,68.5-138.7,89.5-164.8,18.5-25.4,61.4-74.7,119.1-85,57.7-9.3,78.8,30,84.4,53,7.1,13.1,6.2,35.8,8,70.8v-60.1c-.8-4.6-1.8-8.8-3.5-12.2-4.9-24.4-25.8-66.5-86.4-57.2-60.5,10.4-105,62.2-124,88.6-20.3,25.8-51.9,82.9-87,160.5-35.3,77.6-67.2,123-86.3,142.8-18.5,20.1-58.4,60.7-115.3,72.1-57.2,10.5-84.2-20.6-92.7-39.7-3.1-3.8-5-9-6.6-15.3v16.1c1.3,3,2.9,5.6,4.8,7.8,8.8,18.1,36.2,47.1,92.1,37.1"/>
</svg>