<?xml version="1.0" encoding="UTF-8"?>
<svg id="Layer_1" xmlns="http://www.w3.org/2000/svg" version="1.1" viewBox="0 0 419.1 56.6">
  <!-- Generator: Adobe Illustrator 29.0.0, SVG Export Plug-In . SVG Version: 2.1.0 Build 186)  -->
  <defs>
    <style>
      .st0 {
        fill: #010101;
      }
    </style>
  </defs>
  <g>
    <rect class="st0" x="112.7" y="2.7" width="17.3" height="51.6"/>
    <polygon class="st0" points="136 2.7 152.1 2.7 170.5 25.5 170.5 2.7 187.6 2.7 187.6 54.3 172.3 54.3 153.1 30.5 153.1 54.3 136 54.3 136 2.7"/>
    <path class="st0" d="M224.6,35.1l-4.7-12.5-4.7,12.5h9.4ZM211.5,2.3h17.1l21.8,52h-18.7l-2.7-6.9h-18.1l-2.7,6.9h-18.4L211.5,2.3Z"/>
    <polygon class="st0" points="259.1 17.3 243.9 17.3 243.9 2.7 291.5 2.7 291.5 17.3 276.3 17.3 276.3 54.3 259.1 54.3 259.1 17.3"/>
  </g>
  <g>
    <path class="st0" d="M40.1,28.5h0c0-6.3-4.2-11.8-10.8-11.8s-10.7,5.5-10.7,11.5h0c0,6.3,4.2,11.8,10.8,11.8s10.7-5.5,10.7-11.5M1.2,28.5h0C1.2,13.3,13.5,1.4,29.4,1.4s28.1,11.8,28.1,26.8h0c0,15.1-12.3,27.1-28.3,27.1S1.2,43.4,1.2,28.5"/>
    <path class="st0" d="M84.2,27.8c4.4,0,7.4-2,7.4-5.7h0c0-3.9-2.7-5.8-7.3-5.8h-4.7v11.5h4.6ZM62.3,2.5h23.2c13.7,0,23.1,6.1,23.1,18.4h0c0,12.6-9.5,19.3-23.5,19.3h-5.6v14h-17.3V2.5Z"/>
  </g>
  <g>
    <path class="st0" d="M330.8,28.5h0c0-6.3-4.2-11.8-10.8-11.8s-10.7,5.5-10.7,11.5h0c0,6.3,4.2,11.8,10.8,11.8s10.7-5.5,10.7-11.5M291.9,28.5h0c0-15.1,12.3-27.1,28.3-27.1s28.1,11.8,28.1,26.8h0c0,15.1-12.3,27.1-28.2,27.1s-28.1-11.8-28.1-26.8"/>
    <path class="st0" d="M377.7,27.1c4.1,0,6.6-1.8,6.6-5h0c0-3.5-2.6-5.1-6.6-5.1h-7.5v10.1h7.4ZM352.9,2.5h25.2c9.1,0,15,2.3,18.6,5.9,3.1,3.1,4.7,6.9,4.7,12.2h0c0,7.7-3.9,12.9-10.2,15.9l12,17.6h-19.7l-9.7-14.8h-3.7v14.8h-17.3V2.5Z"/>
    <path class="st0" d="M410.7,7.3h.7c.8,0,1.4-.3,1.4-.9s-.4-.9-1.3-.9-.6,0-.8,0v1.8ZM410.7,10.8h-1.4v-6.1c.6-.1,1.4-.2,2.4-.2s1.7.2,2.1.4c.3.3.6.8.6,1.4s-.5,1.2-1.3,1.4h0c.6.3.9.8,1.1,1.6.2.9.3,1.3.5,1.5h-1.5c-.2-.2-.3-.8-.5-1.5-.1-.7-.5-1-1.3-1h-.7v2.5ZM406.9,7.6c0,2.7,2,4.9,4.8,4.9s4.7-2.2,4.7-4.9-2-4.9-4.7-4.9-4.8,2.2-4.8,4.9M417.9,7.6c0,3.5-2.7,6.2-6.3,6.2s-6.3-2.7-6.3-6.2,2.8-6.1,6.3-6.1,6.3,2.7,6.3,6.1"/>
  </g>
</svg>