<?xml version="1.0" encoding="UTF-8"?>
<svg xmlns="http://www.w3.org/2000/svg" xmlns:xlink="http://www.w3.org/1999/xlink" version="1.1" viewBox="0 0 1297 1238.4">
  <!-- Generator: Adobe Illustrator 29.0.0, SVG Export Plug-In . SVG Version: 2.1.0 Build 186)  -->
  <defs>
    <style>
      .st0 {
        mask: url(#mask);
      }

      .st1 {
        filter: url(#luminosity-noclip);
      }

      .st2 {
        fill: url(#linear-gradient2);
      }

      .st3 {
        fill: url(#linear-gradient1);
      }

      .st4 {
        fill: url(#linear-gradient3);
      }

      .st5 {
        fill: url(#linear-gradient6);
      }

      .st6 {
        fill: url(#linear-gradient8);
      }

      .st7 {
        fill: url(#linear-gradient7);
      }

      .st8 {
        fill: url(#linear-gradient5);
      }

      .st9 {
        fill: url(#linear-gradient4);
      }

      .st10 {
        fill: url(#linear-gradient9);
      }

      .st10, .st11, .st12, .st13 {
        mix-blend-mode: soft-light;
      }

      .st14 {
        filter: url(#luminosity-noclip6);
      }

      .st15 {
        filter: url(#luminosity-noclip2);
      }

      .st16 {
        filter: url(#luminosity-noclip4);
      }

      .st17 {
        filter: url(#luminosity-noclip8);
      }

      .st18 {
        fill: url(#linear-gradient21);
      }

      .st18, .st19, .st20, .st21, .st22, .st23, .st24, .st25, .st26, .st27 {
        mix-blend-mode: multiply;
      }

      .st19 {
        fill: url(#linear-gradient20);
      }

      .st20 {
        fill: url(#linear-gradient19);
      }

      .st21 {
        fill: url(#linear-gradient14);
      }

      .st22 {
        fill: url(#linear-gradient17);
      }

      .st23 {
        fill: url(#linear-gradient10);
      }

      .st24 {
        fill: url(#linear-gradient18);
      }

      .st25 {
        fill: url(#linear-gradient13);
      }

      .st26 {
        fill: url(#linear-gradient11);
      }

      .st27 {
        fill: url(#linear-gradient16);
      }

      .st28 {
        fill: url(#linear-gradient);
      }

      .st29 {
        isolation: isolate;
      }

      .st30 {
        mask: url(#mask-2);
      }

      .st31 {
        mask: url(#mask-3);
      }

      .st32 {
        mask: url(#mask-4);
      }

      .st33 {
        mask: url(#mask-5);
      }

      .st34 {
        mask: url(#mask-7);
      }

      .st35 {
        mask: url(#mask-6);
      }

      .st36 {
        mask: url(#mask-1);
      }

      .st37 {
        mask: url(#mask-9);
      }

      .st38 {
        mask: url(#mask-8);
      }

      .st11 {
        fill: url(#linear-gradient12);
      }

      .st12 {
        fill: url(#linear-gradient15);
      }

      .st13 {
        fill: url(#linear-gradient22);
      }
    </style>
    <linearGradient id="linear-gradient" x1="4806.9" y1="584.4" x2="5310.3" y2="584.4" gradientTransform="translate(6091.3) rotate(-180) scale(1 -1)" gradientUnits="userSpaceOnUse">
      <stop offset="0" stop-color="#f8984a"/>
      <stop offset="1" stop-color="#f58122"/>
    </linearGradient>
    <linearGradient id="linear-gradient1" x1="4823.7" y1="715" y2="715" xlink:href="#linear-gradient"/>
    <linearGradient id="linear-gradient2" x1="5114" y1="285.1" x2="5283" y2="285.1" xlink:href="#linear-gradient"/>
    <linearGradient id="linear-gradient3" x1="5209.4" y1="301.5" x2="5330.2" y2="301.5" xlink:href="#linear-gradient"/>
    <linearGradient id="linear-gradient4" x1="5139.4" y1="906.2" x2="5765.9" y2="906.2" xlink:href="#linear-gradient"/>
    <linearGradient id="linear-gradient5" x1="5354.4" y1="906.2" x2="5984.4" y2="906.2" xlink:href="#linear-gradient"/>
    <linearGradient id="linear-gradient6" x1="5525.8" y1="1181.4" x2="5788.5" y2="1181.4" xlink:href="#linear-gradient"/>
    <linearGradient id="linear-gradient7" x1="4931.1" y1="1156.4" x2="5139.4" y2="1156.4" xlink:href="#linear-gradient"/>
    <linearGradient id="linear-gradient8" x1="5898.6" y1="777" x2="6078.6" y2="777" xlink:href="#linear-gradient"/>
    <linearGradient id="linear-gradient9" x1="5174.5" y1="504.2" x2="4818.1" y2="825.8" xlink:href="#linear-gradient"/>
    <filter id="luminosity-noclip" x="781" y="568" width="486.5" height="294" color-interpolation-filters="sRGB" filterUnits="userSpaceOnUse">
      <feFlood flood-color="#fff" result="bg"/>
      <feBlend in="SourceGraphic" in2="bg"/>
    </filter>
    <filter id="luminosity-noclip1" x="781" y="-10192" width="486.5" height="32766" color-interpolation-filters="sRGB" filterUnits="userSpaceOnUse">
      <feFlood flood-color="#fff" result="bg"/>
      <feBlend in="SourceGraphic" in2="bg"/>
    </filter>
    <mask id="mask-1" x="781" y="-10192" width="486.5" height="32766" maskUnits="userSpaceOnUse"/>
    <linearGradient id="linear-gradient10" x1="5122.3" y1="802.7" x2="5042.3" y2="603.9" gradientTransform="translate(6091.3) rotate(-180) scale(1 -1)" gradientUnits="userSpaceOnUse">
      <stop offset="0" stop-color="#000"/>
      <stop offset="1" stop-color="#fff"/>
    </linearGradient>
    <mask id="mask" x="781" y="568" width="486.5" height="294" maskUnits="userSpaceOnUse">
      <g class="st1">
        <g class="st36">
          <polygon class="st23" points="1267.6 725 1248.7 809.7 951.8 862 781 568 1267.6 725"/>
        </g>
      </g>
    </mask>
    <linearGradient id="linear-gradient11" x1="5122.3" y1="802.7" x2="5042.3" y2="603.9" xlink:href="#linear-gradient"/>
    <linearGradient id="linear-gradient12" x1="5082.3" y1="284.3" x2="5277.8" y2="285.6" xlink:href="#linear-gradient"/>
    <filter id="luminosity-noclip2" x="761.1" y="49.6" width="120.8" height="503.9" color-interpolation-filters="sRGB" filterUnits="userSpaceOnUse">
      <feFlood flood-color="#fff" result="bg"/>
      <feBlend in="SourceGraphic" in2="bg"/>
    </filter>
    <filter id="luminosity-noclip3" x="761.1" y="-10192" width="120.8" height="32766" color-interpolation-filters="sRGB" filterUnits="userSpaceOnUse">
      <feFlood flood-color="#fff" result="bg"/>
      <feBlend in="SourceGraphic" in2="bg"/>
    </filter>
    <mask id="mask-3" x="761.1" y="-10192" width="120.8" height="32766" maskUnits="userSpaceOnUse"/>
    <linearGradient id="linear-gradient13" x1="5326.1" y1="298.3" x2="5232.8" y2="302.1" gradientTransform="translate(6091.3) rotate(-180) scale(1 -1)" gradientUnits="userSpaceOnUse">
      <stop offset="0" stop-color="#000"/>
      <stop offset="1" stop-color="#fff"/>
    </linearGradient>
    <mask id="mask-2" x="761.1" y="49.6" width="120.8" height="503.9" maskUnits="userSpaceOnUse">
      <g class="st15">
        <g class="st31">
          <polygon class="st25" points="881.9 49.6 808.3 553.5 761.1 199.4 881.9 49.6"/>
        </g>
      </g>
    </mask>
    <linearGradient id="linear-gradient14" x1="5326.1" y1="298.3" x2="5232.8" y2="302.1" xlink:href="#linear-gradient"/>
    <linearGradient id="linear-gradient15" x1="5242.5" y1="741.1" x2="5551.7" y2="984" xlink:href="#linear-gradient"/>
    <filter id="luminosity-noclip4" x="106.9" y="590.6" width="630" height="631.2" color-interpolation-filters="sRGB" filterUnits="userSpaceOnUse">
      <feFlood flood-color="#fff" result="bg"/>
      <feBlend in="SourceGraphic" in2="bg"/>
    </filter>
    <filter id="luminosity-noclip5" x="106.9" y="-10192" width="630" height="32766" color-interpolation-filters="sRGB" filterUnits="userSpaceOnUse">
      <feFlood flood-color="#fff" result="bg"/>
      <feBlend in="SourceGraphic" in2="bg"/>
    </filter>
    <mask id="mask-5" x="106.9" y="-10192" width="630" height="32766" maskUnits="userSpaceOnUse"/>
    <linearGradient id="linear-gradient16" x1="5748.9" y1="1055.6" x2="5557.2" y2="777.1" gradientTransform="translate(6091.3) rotate(-180) scale(1 -1)" gradientUnits="userSpaceOnUse">
      <stop offset="0" stop-color="#000"/>
      <stop offset="1" stop-color="#fff"/>
    </linearGradient>
    <mask id="mask-4" x="106.9" y="590.6" width="630" height="631.2" maskUnits="userSpaceOnUse">
      <g class="st16">
        <g class="st33">
          <polygon class="st27" points="106.9 875.1 325.4 590.6 736.9 1005.2 302.8 1221.8 106.9 875.1"/>
        </g>
      </g>
    </mask>
    <linearGradient id="linear-gradient17" x1="5748.9" y1="1055.6" x2="5557.2" y2="777.1" xlink:href="#linear-gradient"/>
    <filter id="luminosity-noclip6" x="302.8" y="1141" width="262.7" height="80.7" color-interpolation-filters="sRGB" filterUnits="userSpaceOnUse">
      <feFlood flood-color="#fff" result="bg"/>
      <feBlend in="SourceGraphic" in2="bg"/>
    </filter>
    <filter id="luminosity-noclip7" x="302.8" y="-10192" width="262.7" height="32766" color-interpolation-filters="sRGB" filterUnits="userSpaceOnUse">
      <feFlood flood-color="#fff" result="bg"/>
      <feBlend in="SourceGraphic" in2="bg"/>
    </filter>
    <mask id="mask-7" x="302.8" y="-10192" width="262.7" height="32766" maskUnits="userSpaceOnUse"/>
    <linearGradient id="linear-gradient18" x1="5581.8" y1="1298.7" x2="5686.2" y2="1192.2" gradientTransform="translate(6091.3) rotate(-180) scale(1 -1)" gradientUnits="userSpaceOnUse">
      <stop offset="0" stop-color="#000"/>
      <stop offset="1" stop-color="#fff"/>
    </linearGradient>
    <mask id="mask-6" x="302.8" y="1141" width="262.7" height="80.7" maskUnits="userSpaceOnUse">
      <g class="st14">
        <g class="st34">
          <polygon class="st24" points="302.8 1221.8 565.5 1221.8 464.6 1141 302.8 1221.8"/>
        </g>
      </g>
    </mask>
    <linearGradient id="linear-gradient19" x1="5581.8" y1="1298.7" x2="5686.2" y2="1192.2" xlink:href="#linear-gradient"/>
    <filter id="luminosity-noclip8" x="951.8" y="1091" width="208.3" height="130.8" color-interpolation-filters="sRGB" filterUnits="userSpaceOnUse">
      <feFlood flood-color="#fff" result="bg"/>
      <feBlend in="SourceGraphic" in2="bg"/>
    </filter>
    <filter id="luminosity-noclip9" x="951.8" y="-10192" width="208.3" height="32766" color-interpolation-filters="sRGB" filterUnits="userSpaceOnUse">
      <feFlood flood-color="#fff" result="bg"/>
      <feBlend in="SourceGraphic" in2="bg"/>
    </filter>
    <mask id="mask-9" x="951.8" y="-10192" width="208.3" height="32766" maskUnits="userSpaceOnUse"/>
    <linearGradient id="linear-gradient20" x1="4931.1" y1="1156.4" x2="5139.4" y2="1156.4" gradientTransform="translate(6091.3) rotate(-180) scale(1 -1)" gradientUnits="userSpaceOnUse">
      <stop offset="0" stop-color="#000"/>
      <stop offset="1" stop-color="#fff"/>
    </linearGradient>
    <mask id="mask-8" x="951.8" y="1091" width="208.3" height="130.8" maskUnits="userSpaceOnUse">
      <g class="st17">
        <g class="st37">
          <polygon class="st19" points="951.8 1221.8 1160.2 1221.8 951.8 1091 951.8 1221.8"/>
        </g>
      </g>
    </mask>
    <linearGradient id="linear-gradient21" x1="4931.1" y1="1156.4" x2="5139.4" y2="1156.4" xlink:href="#linear-gradient"/>
    <linearGradient id="linear-gradient22" x1="5898.6" y1="777" x2="6078.6" y2="777" xlink:href="#linear-gradient"/>
  </defs>
  <g class="st29">
    <g id="artwork">
      <g>
        <g>
          <polygon class="st28" points="1015.2 443.8 1284.4 649.5 1267.6 725 781 568 1015.2 443.8"/>
          <polygon class="st3" points="1267.6 725 1248.7 809.7 951.8 862 781 568 1267.6 725"/>
          <g>
            <polygon class="st2" points="977.3 16.7 977.3 463.9 808.3 553.5 808.3 553.5 881.9 49.6 977.3 16.7"/>
            <polygon class="st4" points="881.9 49.6 808.3 553.5 761.1 199.4 881.9 49.6"/>
          </g>
          <g>
            <polygon class="st9" points="794.3 590.6 951.8 862 951.8 1221.8 325.4 590.6 794.3 590.6"/>
            <polygon class="st8" points="106.9 875.1 325.4 590.6 736.9 1005.2 302.8 1221.8 106.9 875.1"/>
          </g>
          <polygon class="st5" points="302.8 1221.8 565.5 1221.8 464.6 1141 302.8 1221.8"/>
          <polygon class="st7" points="951.8 1221.8 1160.2 1221.8 951.8 1091 951.8 1221.8"/>
          <path class="st6" d="M123.3,853.7c1-1.3-110.6-153.5-110.6-153.5l180.1,63.1-69.4,90.4Z"/>
        </g>
        <g>
          <polygon class="st10" points="1015.2 443.8 1284.4 649.5 1267.6 725 781 568 1015.2 443.8"/>
          <g class="st0">
            <polygon class="st26" points="1267.6 725 1248.7 809.7 951.8 862 781 568 1267.6 725"/>
          </g>
          <g>
            <polygon class="st11" points="977.3 16.7 977.3 463.9 808.3 553.5 808.3 553.5 881.9 49.6 977.3 16.7"/>
            <g class="st30">
              <polygon class="st21" points="881.9 49.6 808.3 553.5 761.1 199.4 881.9 49.6"/>
            </g>
          </g>
          <g>
            <polygon class="st12" points="794.3 590.6 951.8 862 951.8 1221.8 325.4 590.6 794.3 590.6"/>
            <g class="st32">
              <polygon class="st22" points="106.9 875.1 325.4 590.6 736.9 1005.2 302.8 1221.8 106.9 875.1"/>
            </g>
          </g>
          <g class="st35">
            <polygon class="st20" points="302.8 1221.8 565.5 1221.8 464.6 1141 302.8 1221.8"/>
          </g>
          <g class="st38">
            <polygon class="st18" points="951.8 1221.8 1160.2 1221.8 951.8 1091 951.8 1221.8"/>
          </g>
          <path class="st13" d="M123.3,853.7c1-1.3-110.6-153.5-110.6-153.5l180.1,63.1-69.4,90.4Z"/>
        </g>
      </g>
    </g>
  </g>
</svg>