<?xml version="1.0" encoding="UTF-8"?>
<svg id="Layer_1" xmlns="http://www.w3.org/2000/svg" version="1.1" viewBox="0 0 51.4 52.2">
  <!-- Generator: Adobe Illustrator 29.0.0, SVG Export Plug-In . SVG Version: 2.1.0 Build 186)  -->
  <defs>
    <style>
      .st0 {
        fill: #34bcaa;
      }
    </style>
  </defs>
  <path class="st0" d="M16.9,22.2c-4.2-.1-8.4-.2-12.6-.3-4.7-.1-4.7,7.3,0,7.4,4.2.1,8.4.2,12.6.3,4.7.1,4.7-7.3,0-7.4"/>
  <path class="st0" d="M47.1,23c-4.2-.1-8.4-.2-12.6-.3-4.7-.1-4.7,7.3,0,7.4,4.2.1,8.4.2,12.6.3,4.7.1,4.7-7.3,0-7.4"/>
  <path class="st0" d="M29.6,17.2c.1-4.3.2-8.5.3-12.8.1-4.7-7.1-4.7-7.3,0-.1,4.3-.2,8.5-.3,12.8-.1,4.7,7.1,4.7,7.3,0"/>
  <path class="st0" d="M28.8,47.8c.1-4.3.2-8.5.3-12.8.1-4.7-7.1-4.7-7.3,0-.1,4.3-.2,8.5-.3,12.8-.1,4.7,7.1,4.7,7.3,0"/>
</svg>