<?xml version="1.0" encoding="UTF-8"?>
<svg id="Layer_1" xmlns="http://www.w3.org/2000/svg" version="1.1" viewBox="0 0 51.4 52.2">
  <!-- Generator: Adobe Illustrator 29.0.0, SVG Export Plug-In . SVG Version: 2.1.0 Build 186)  -->
  <defs>
    <style>
      .st0 {
        fill: #16375e;
      }
    </style>
  </defs>
  <path class="st0" d="M25.6,49.5l21.7-16.5c.4-.3,1-.2,1.3.2.3.4.2,1.1-.2,1.4l-21.7,16.5c-.4.3-1,.2-1.3-.2-.3-.4-.2-1.1.2-1.4"/>
  <path class="st0" d="M35.1,48.4l8.1-6.2c.4-.3,1-.2,1.3.2.3.4.2,1.1-.2,1.4l-8.1,6.2c-.4.3-1,.2-1.3-.2-.3-.4-.2-1.1.2-1.4"/>
  <path class="st0" d="M18.9,48.5l29.4-22.4c.4-.3,1-.2,1.3.2.3.4.2,1.1-.2,1.4l-29.4,22.4c-.4.3-1,.2-1.3-.2-.3-.4-.2-1.1.2-1.4"/>
  <path class="st0" d="M13.8,46.2l33.9-25.8c.4-.3,1-.2,1.3.2.3.4.2,1.1-.2,1.4L14.9,47.8c-.4.3-1,.2-1.3-.2-.3-.4-.2-1.1.2-1.4"/>
  <path class="st0" d="M9.8,43.1L46.1,15.5c.4-.3,1-.2,1.3.2.3.4.2,1.1-.2,1.4L10.9,44.7c-.4.3-1,.2-1.3-.2-.3-.4-.2-1.1.2-1.4"/>
  <path class="st0" d="M6.6,39.4L43.7,11.2c.4-.3,1-.2,1.3.2.3.4.2,1.1-.2,1.4L7.7,41c-.4.3-1,.2-1.3-.2-.3-.4-.2-1.1.2-1.4"/>
  <path class="st0" d="M4.2,35.2L40.5,7.5c.4-.3,1-.2,1.3.2.3.4.2,1.1-.2,1.4L5.3,36.7c-.4.3-1,.2-1.3-.2-.3-.4-.2-1.1.2-1.4"/>
  <path class="st0" d="M2.6,30.2L36.5,4.4c.4-.3,1-.2,1.3.2.3.4.2,1.1-.2,1.4L3.7,31.8c-.4.3-1,.2-1.3-.2-.3-.4-.2-1.1.2-1.4"/>
  <path class="st0" d="M2,24.5L31.4,2.2c.4-.3,1-.2,1.3.2.3.4.2,1-.2,1.4L3.1,26.1c-.4.3-1,.2-1.3-.2-.3-.4-.2-1.1.2-1.4"/>
  <path class="st0" d="M3.1,17.6L24.7,1.1c.4-.3,1-.2,1.3.2.3.4.2,1.1-.2,1.4L4.2,19.2c-.4.3-1,.2-1.3-.2-.3-.4-.2-1.1.2-1.4"/>
  <path class="st0" d="M7,8.5L15.2,2.3c.4-.3,1-.2,1.3.2.3.4.2,1.1-.2,1.4l-8.1,6.2c-.4.3-1,.2-1.3-.2-.3-.4-.2-1.1.2-1.4"/>
</svg>